<svg xmlns="http://www.w3.org/2000/svg" width="360" height="360" fill="none" xmlns:v="https://vecta.io/nano"><g clip-path="url(#C)"><path fill="url(#A)" d="M0 0h360v360H0z"/><path d="M180.001 6l117.282 120H62.719L180.001 6z" fill="url(#B)"/><g fill-rule="evenodd"><g fill="#f7be23"><path d="M172.025 16.16c0 4.331 3.589 7.842 8.016 7.842s8.016-3.511 8.016-7.842-3.589-7.842-8.016-7.842-8.016 3.511-8.016 7.842zm20.765 9.149a.72.72 0 0 0 .167-.789l-2.054-5.088c-.152-.377-.588-.562-.973-.413a.73.73 0 0 0-.422.952l2.054 5.088c.152.377.588.562.973.413.099-.038.185-.095.255-.163zm-4.172 10.528a.72.72 0 0 0 .205-.665l-1.107-5.363a.75.75 0 0 0-.884-.574c-.406.08-.669.467-.587.864l1.108 5.362a.75.75 0 0 0 1.265.374zm-25.856-3.205c.073-.071.131-.158.17-.258l1.282-3.294a.73.73 0 0 0-.434-.947c-.387-.144-.82.047-.967.425l-1.282 3.294a.73.73 0 0 0 .434.947.76.76 0 0 0 .797-.167zm9.539 3.222a.72.72 0 0 0 .204-.372l1.119-5.36c.082-.397-.179-.785-.585-.865a.75.75 0 0 0-.885.572l-1.118 5.36c-.083.397.179.785.584.866a.76.76 0 0 0 .681-.2zm-4.4-9.131a.72.72 0 0 0 .179-.282l1.806-5.178a.73.73 0 0 0-.468-.931c-.392-.131-.819.074-.952.457l-1.805 5.178a.73.73 0 0 0 .467.931.76.76 0 0 0 .773-.176zm32.515 2.568c.238-.233.293-.604.11-.899l-1.926-3.109a.76.76 0 0 0-1.03-.247c-.354.21-.467.661-.253 1.008l1.927 3.109a.76.76 0 0 0 1.03.247c.053-.031.1-.068.142-.109zm-19.82 14.393a.72.72 0 0 0 .219-.525l-.091-10.077c-.003-.405-.342-.731-.756-.727s-.747.335-.744.74l.091 10.077c.004.405.343.731.757.727a.76.76 0 0 0 .524-.215zm12.275-15.354c.347.34.911.34 1.258 0a.86.86 0 0 0 0-1.231c-.347-.34-.911-.34-1.258 0s-.347.891 0 1.23z"/></g><path d="M165.019 20.769h29.962c.732 0 1.206-.755.876-1.394l-4.28-8.284c0-1.843-1.527-3.336-3.41-3.336h-16.334c-1.884 0-3.41 1.494-3.41 3.336l-4.28 8.284c-.33.639.144 1.394.876 1.394z" fill="#b88a09"/><path d="M192.175 19.377l-4.28-8.284c0-1.842-1.527-3.336-3.41-3.336h3.681c1.883 0 3.41 1.494 3.41 3.336l4.279 8.284c.331.639-.144 1.394-.876 1.394h-3.681c.732 0 1.207-.755.877-1.394z" fill="#997a2b"/><path d="M168.423 10.983h23.154V-4.851c0-1.842-1.527-3.336-3.41-3.336h-16.334c-1.883 0-3.41 1.494-3.41 3.336v15.834z" fill="#f7be23"/><path d="M184.485-8.184h3.681c1.883 0 3.41 1.494 3.41 3.336v15.834h-3.681V-4.848c0-1.842-1.527-3.336-3.41-3.336z" fill="#e5ad23"/></g></g><defs><linearGradient id="A" x1="180" y1="0" x2="180" y2="360" gradientUnits="userSpaceOnUse"><stop stop-color="#fff8e3"/><stop offset="1" stop-color="#fff" stop-opacity="0"/></linearGradient><linearGradient id="B" x1="180" y1="39" x2="180.001" y2="126" gradientUnits="userSpaceOnUse"><stop stop-color="#ffe396"/><stop offset="1" stop-color="#fff" stop-opacity="0"/></linearGradient><clipPath id="C"><path fill="#fff" d="M0 0h360v360H0z"/></clipPath></defs></svg>