<svg width="30" height="28" fill="none" xmlns="http://www.w3.org/2000/svg"><path d="M15.697 2.37l3.61 7.376 8.06 1.18a.809.809 0 01.595.548.829.829 0 01-.165.796l-5.83 5.736 1.37 8.105a.827.827 0 01-.335.731.807.807 0 01-.793.088L15 23.103 7.79 26.93a.804.804 0 01-1.063-.406.827.827 0 01-.072-.413l1.379-8.105-5.831-5.736a.823.823 0 01.43-1.344l8.06-1.18 3.61-7.375A.815.815 0 0115 1.969a.804.804 0 01.697.402z" stroke="#353535" stroke-width="2" stroke-linecap="round" stroke-linejoin="round"/></svg>