<svg width="25" height="31" fill="none" xmlns="http://www.w3.org/2000/svg"><path d="M11.984 22.724l-3.06 6.214a.163.163 0 01-.29 0l-2.317-3.506a.52.52 0 00-.49-.23l-3.959.46a.18.18 0 01-.151-.077.177.177 0 01-.02-.168l2.971-5.984a10.93 10.93 0 007.316 3.291zm11.178 2.915l-3.959-.459a.507.507 0 00-.49.23l-2.317 3.506a.162.162 0 01-.23.064.163.163 0 01-.06-.064l-3.06-6.214a10.93 10.93 0 007.33-3.277l2.971 5.985a.17.17 0 01-.185.229v0z" stroke="#353535" stroke-width="2" stroke-linecap="round" stroke-linejoin="round"/><path d="M23.512 11.858a10.85 10.85 0 01-3.028 7.483 10.937 10.937 0 01-7.37 3.346h-1.062a10.923 10.923 0 01-5.886-2.11 10.856 10.856 0 01-3.75-4.988 10.81 10.81 0 01-.377-6.218A10.842 10.842 0 015.157 3.97a10.936 10.936 0 0111.8-2.085 10.885 10.885 0 014.792 4.004 10.82 10.82 0 011.793 5.969h-.03z" stroke="#353535" stroke-width="2" stroke-linecap="round" stroke-linejoin="round"/><path d="M9.05 12.686l1.7 1.68a.119.119 0 00.179 0l5.043-4.994" stroke="#353535" stroke-width="2" stroke-linecap="round" stroke-linejoin="round"/></svg>