<?xml version="1.0" encoding="UTF-8"?>
<!DOCTYPE svg PUBLIC "-//W3C//DTD SVG 1.1//EN" "http://www.w3.org/Graphics/SVG/1.1/DTD/svg11.dtd">
<!-- Creator: CorelDRAW 2021 (64-Bit) -->
<svg xmlns="http://www.w3.org/2000/svg" xml:space="preserve" width="42.3332mm" height="42.3332mm" version="1.1" style="shape-rendering:geometricPrecision; text-rendering:geometricPrecision; image-rendering:optimizeQuality; fill-rule:evenodd; clip-rule:evenodd"
viewBox="0 0 4233.32 4233.32"
 xmlns:xlink="http://www.w3.org/1999/xlink"
 xmlns:xodm="http://www.corel.com/coreldraw/odm/2003">
 <defs>
  <style type="text/css">
   <![CDATA[
    .fil13 {fill:black}
    .fil17 {fill:#008DD2}
    .fil9 {fill:#008DD2}
    .fil16 {fill:#0DB4C4}
    .fil4 {fill:#247DFE}
    .fil15 {fill:#247DFE}
    .fil12 {fill:#333333}
    .fil5 {fill:#4D4D4D}
    .fil0 {fill:#CCCCCC}
    .fil18 {fill:#FEFEFE}
    .fil7 {fill:white}
    .fil6 {fill:white}
    .fil14 {fill:black;fill-rule:nonzero}
    .fil37 {fill:#0DB4C4;fill-rule:nonzero}
    .fil10 {fill:#247DFE;fill-rule:nonzero}
    .fil11 {fill:white;fill-rule:nonzero}
    .fil40 {fill:url(#id1)}
    .fil41 {fill:url(#id2)}
    .fil39 {fill:url(#id3)}
    .fil32 {fill:url(#id4)}
    .fil34 {fill:url(#id5)}
    .fil35 {fill:url(#id6)}
    .fil28 {fill:url(#id7)}
    .fil44 {fill:url(#id8)}
    .fil30 {fill:url(#id9)}
    .fil31 {fill:url(#id10)}
    .fil1 {fill:url(#id11)}
    .fil36 {fill:url(#id12)}
    .fil29 {fill:url(#id13)}
    .fil19 {fill:url(#id14)}
    .fil25 {fill:url(#id15)}
    .fil33 {fill:url(#id16)}
    .fil42 {fill:url(#id17)}
    .fil24 {fill:url(#id18)}
    .fil21 {fill:url(#id19)}
    .fil2 {fill:url(#id20)}
    .fil26 {fill:url(#id21)}
    .fil43 {fill:url(#id22)}
    .fil27 {fill:url(#id23)}
    .fil20 {fill:url(#id24)}
    .fil22 {fill:url(#id25)}
    .fil38 {fill:url(#id26)}
    .fil23 {fill:url(#id27)}
    .fil8 {fill:url(#id28)}
    .fil3 {fill:url(#id29)}
   ]]>
  </style>
   <clipPath id="id0">
    <rect x="289197.08" y="-37040.7" width="76188.19" height="76188.19"/>
   </clipPath>
  <linearGradient id="id1" gradientUnits="userSpaceOnUse" x1="100665.81" y1="12258.92" x2="100874.86" y2="12419.53">
   <stop offset="0" style="stop-opacity:1; stop-color:#0DB4C4"/>
   <stop offset="1" style="stop-opacity:1; stop-color:#008DD2"/>
  </linearGradient>
  <linearGradient id="id2" gradientUnits="objectBoundingBox" xlink:href="#id1" x1="0%" y1="25.0627%" x2="99.6291%" y2="78.9294%">
  </linearGradient>
  <linearGradient id="id3" gradientUnits="userSpaceOnUse" xlink:href="#id1" x1="100923.79" y1="12304.71" x2="101036.72" y2="12391.86">
  </linearGradient>
  <linearGradient id="id4" gradientUnits="userSpaceOnUse" xlink:href="#id1" x1="79167.13" y1="16815" x2="79883.92" y2="18311.06">
  </linearGradient>
  <linearGradient id="id5" gradientUnits="userSpaceOnUse" xlink:href="#id1" x1="84437.23" y1="17528.84" x2="86240.73" y2="18936.66">
  </linearGradient>
  <linearGradient id="id6" gradientUnits="userSpaceOnUse" xlink:href="#id1" x1="94627.31" y1="17311.06" x2="96218.74" y2="19140.47">
  </linearGradient>
  <linearGradient id="id7" gradientUnits="userSpaceOnUse" xlink:href="#id1" x1="73185.59" y1="17990.73" x2="74405.37" y2="19380.72">
  </linearGradient>
  <linearGradient id="id8" gradientUnits="userSpaceOnUse" xlink:href="#id1" x1="105345.37" y1="12636.35" x2="105935.74" y2="12791.37">
  </linearGradient>
  <linearGradient id="id9" gradientUnits="userSpaceOnUse" xlink:href="#id1" x1="73812.53" y1="16916.42" x2="74203.62" y2="17369.54">
  </linearGradient>
  <linearGradient id="id10" gradientUnits="userSpaceOnUse" xlink:href="#id1" x1="79286.67" y1="18116.63" x2="79934.39" y2="19621.48">
  </linearGradient>
  <linearGradient id="id11" gradientUnits="objectBoundingBox" x1="50.335%" y1="0%" x2="58.3112%" y2="214.013%">
   <stop offset="0" style="stop-opacity:1; stop-color:#003399"/>
   <stop offset="1" style="stop-opacity:1; stop-color:#3378CC"/>
  </linearGradient>
  <linearGradient id="id12" gradientUnits="userSpaceOnUse" xlink:href="#id1" x1="94667.62" y1="17334.25" x2="96170.9" y2="18991.65">
  </linearGradient>
  <linearGradient id="id13" gradientUnits="userSpaceOnUse" xlink:href="#id1" x1="73959.56" y1="17740.44" x2="75050.15" y2="18866.27">
  </linearGradient>
  <linearGradient id="id14" gradientUnits="userSpaceOnUse" xlink:href="#id1" x1="58056.64" y1="17383.07" x2="58573.98" y2="19029.57">
  </linearGradient>
  <linearGradient id="id15" gradientUnits="userSpaceOnUse" xlink:href="#id1" x1="68291.07" y1="17392" x2="69722.77" y2="19050.68">
  </linearGradient>
  <linearGradient id="id16" gradientUnits="userSpaceOnUse" xlink:href="#id1" x1="78773.14" y1="17568.03" x2="79039.28" y2="17925.19">
  </linearGradient>
  <linearGradient id="id17" gradientUnits="userSpaceOnUse" xlink:href="#id1" x1="100835.1" y1="12701.04" x2="100985.07" y2="12818.69">
  </linearGradient>
  <linearGradient id="id18" gradientUnits="userSpaceOnUse" xlink:href="#id1" x1="63808.38" y1="18425.63" x2="64000.13" y2="19000.04">
  </linearGradient>
  <linearGradient id="id19" gradientUnits="userSpaceOnUse" xlink:href="#id1" x1="63740.83" y1="17715.5" x2="64037.1" y2="18457.22">
  </linearGradient>
  <linearGradient id="id20" gradientUnits="objectBoundingBox" xlink:href="#id11" x1="49.9999%" y1="0%" x2="53.5764%" y2="115.791%">
  </linearGradient>
  <linearGradient id="id21" gradientUnits="userSpaceOnUse" xlink:href="#id1" x1="69074.33" y1="18190.76" x2="69347.98" y2="18507.45">
  </linearGradient>
  <linearGradient id="id22" gradientUnits="userSpaceOnUse" xlink:href="#id1" x1="100550.37" y1="12602.88" x2="100661.47" y2="12690.42">
  </linearGradient>
  <linearGradient id="id23" gradientUnits="userSpaceOnUse" xlink:href="#id1" x1="68754.36" y1="17870.68" x2="69027.42" y2="18187.1">
  </linearGradient>
  <linearGradient id="id24" gradientUnits="userSpaceOnUse" xlink:href="#id1" x1="63792.02" y1="17062.71" x2="63970.32" y2="17713.4">
  </linearGradient>
  <linearGradient id="id25" gradientUnits="userSpaceOnUse" xlink:href="#id1" x1="63800.98" y1="18715.72" x2="64010.67" y2="19299.14">
  </linearGradient>
  <linearGradient id="id26" gradientUnits="userSpaceOnUse" xlink:href="#id1" x1="91055.16" y1="18053.3" x2="91271.61" y2="18304.07">
  </linearGradient>
  <linearGradient id="id27" gradientUnits="userSpaceOnUse" xlink:href="#id1" x1="63806.82" y1="18136.07" x2="63999.72" y2="18724.88">
  </linearGradient>
  <linearGradient id="id28" gradientUnits="objectBoundingBox" xlink:href="#id1" x1="11.6194%" y1="10.6723%" x2="82.9571%" y2="93.3199%">
  </linearGradient>
  <linearGradient id="id29" gradientUnits="objectBoundingBox" xlink:href="#id11" x1="49.9998%" y1="0%" x2="56.3923%" y2="302.85%">
  </linearGradient>
 </defs>
 <g id="Layer_x0020_1">
  <metadata id="CorelCorpID_0Corel-Layer"/>
  <rect class="fil0" x="29398.9" y="-15260.34" width="90809.28" height="38834.16"/>
  <g id="_2583564678800">
   <path class="fil1" d="M33850.88 -10940.69c-295.61,0 -535.23,-239.63 -535.23,-535.23 0,-295.61 239.62,-535.23 535.23,-535.23 295.6,0 535.23,239.62 535.23,535.23 0,295.6 -239.63,535.23 -535.23,535.23zm0 -1481.49c-522.61,0 -946.26,423.65 -946.26,946.26 0,522.6 423.65,946.25 946.26,946.25 522.6,0 946.26,-423.65 946.26,-946.25 0,-522.61 -423.66,-946.26 -946.26,-946.26z"/>
   <path class="fil2" d="M33857.22 -9486.47c-920.02,0 -1665.85,-748.23 -1665.85,-1671.23 0,-923 745.83,-1671.23 1665.85,-1671.23 920.03,0 1665.86,748.23 1665.86,1671.23 0,923 -745.83,1671.23 -1665.86,1671.23zm0 -3788.32c-1165.47,0 -2110.27,947.85 -2110.27,2117.09 0,1169.24 944.8,2117.09 2110.27,2117.09 1165.48,0 2110.28,-947.85 2110.28,-2117.09 0,-1169.24 -944.8,-2117.09 -2110.28,-2117.09z"/>
   <path class="fil3" d="M32676.55 -9978.72c112.46,113.35 241.03,210.6 381.98,288 237.13,-130.22 509.29,-204.25 798.69,-204.25 289.4,0 561.56,74.03 798.7,204.25 140.95,-77.4 269.52,-174.65 381.98,-288 -336.96,-228.61 -743.28,-362.11 -1180.68,-362.11 -437.4,0 -843.72,133.5 -1180.67,362.11z"/>
  </g>
  <circle class="fil4" cx="39438.88" cy="-11157.7" r="2109.54"/>
  <g id="_2583564688064">
   <circle class="fil5" cx="44295.36" cy="-11157.97" r="1821.99"/>
   <path class="fil4" d="M44295.36 -9335.98c-550.34,0 -1043.69,-244 -1377.77,-629.73l-6.77 3.1c-21.42,-49.03 -70.33,-83.29 -127.26,-83.29 -76.67,0 -138.82,62.15 -138.82,138.82 0,21.52 4.9,41.9 13.64,60.07l-6.03 2.76c385.52,481.52 978.2,790 1643.01,790 1161.85,0 2103.72,-941.87 2103.72,-2103.72 0,-1148.14 -919.79,-2081.33 -2062.7,-2103.2l-0.77 6.08c-12.43,-3.65 -25.58,-5.62 -39.19,-5.62 -76.68,0 -138.83,62.15 -138.83,138.82 0,76.68 62.15,138.83 138.83,138.83 1.62,0 3.23,-0.04 4.84,-0.1l-0.41 3.27c1003.73,2.97 1816.51,817.5 1816.51,1821.92 0,1006.26 -815.74,1821.99 -1822,1821.99z"/>
   <g>
    <circle class="fil6" cx="44295.36" cy="-11635.37" r="594.53"/>
    <path class="fil6" d="M43130.17 -9757.21c315.85,263.02 722.04,421.23 1165.19,421.23 443.57,0 850.11,-158.5 1166.08,-421.96 -75.42,-576.48 -568.53,-1021.59 -1165.59,-1021.59 -597.31,0 -1090.58,445.48 -1165.68,1022.32z"/>
   </g>
  </g>
  <g id="_2585325935072">
   <circle class="fil7" cx="39438.47" cy="-11967.75" r="564.97"/>
   <path class="fil7" d="M38331.21 -10182.97c300.15,249.94 686.14,400.28 1107.26,400.28 421.51,0 807.83,-150.62 1108.09,-400.98 -71.67,-547.82 -540.25,-970.78 -1107.63,-970.78 -567.61,0 -1036.35,423.32 -1107.72,971.48z"/>
  </g>
  <circle class="fil8" cx="44292.93" cy="-4829.99" r="2109.54"/>
  <circle class="fil9" cx="49457.79" cy="-4829.99" r="2109.54"/>
  <circle class="fil8" cx="54725.09" cy="-4829.99" r="2109.54"/>
  <circle class="fil8" cx="58408.74" cy="12680.6" r="2109.54"/>
  <path class="fil8" d="M58408.74 15996.75c603.23,0 1149.38,244.52 1544.7,639.84 395.32,395.32 639.84,941.46 639.84,1544.69 0,603.24 -244.52,1149.38 -639.84,1544.7 -395.32,395.32 -941.47,639.84 -1544.7,639.84 -603.23,0 -1149.37,-244.52 -1544.69,-639.84 -395.32,-395.32 -639.84,-941.47 -639.84,-1544.7 0,-603.23 244.52,-1149.37 639.84,-1544.69 395.32,-395.32 941.46,-639.84 1544.69,-639.84zm1438.64 745.9c-368.16,-368.16 -876.82,-595.9 -1438.64,-595.9 -561.82,0 -1070.47,227.74 -1438.63,595.9 -368.16,368.16 -595.9,876.81 -595.9,1438.63 0,561.82 227.74,1070.48 595.9,1438.64 368.16,368.16 876.81,595.9 1438.63,595.9 561.82,0 1070.48,-227.74 1438.64,-595.9 368.16,-368.16 595.9,-876.81 595.9,-1438.64 0,-561.82 -227.74,-1070.47 -595.9,-1438.63z"/>
  <circle class="fil8" cx="63922.6" cy="12680.6" r="2109.54"/>
  <path class="fil8" d="M63922.6 15996.75c603.23,0 1149.38,244.52 1544.7,639.84 395.32,395.32 639.84,941.46 639.84,1544.69 0,603.24 -244.52,1149.38 -639.84,1544.7 -395.32,395.32 -941.47,639.84 -1544.7,639.84 -603.23,0 -1149.37,-244.52 -1544.69,-639.84 -395.32,-395.32 -639.84,-941.47 -639.84,-1544.7 0,-603.23 244.52,-1149.37 639.84,-1544.69 395.32,-395.32 941.46,-639.84 1544.69,-639.84zm1438.64 745.9c-368.16,-368.16 -876.82,-595.9 -1438.64,-595.9 -561.82,0 -1070.47,227.74 -1438.63,595.9 -368.16,368.16 -595.9,876.81 -595.9,1438.63 0,561.82 227.74,1070.48 595.9,1438.64 368.16,368.16 876.81,595.9 1438.63,595.9 561.82,0 1070.48,-227.74 1438.64,-595.9 368.16,-368.16 595.9,-876.81 595.9,-1438.64 0,-561.82 -227.74,-1070.47 -595.9,-1438.63z"/>
  <circle class="fil8" cx="69061.35" cy="12680.6" r="2109.54"/>
  <path class="fil8" d="M69061.34 15996.75c603.23,0 1149.38,244.52 1544.7,639.84 395.32,395.32 639.84,941.46 639.84,1544.69 0,603.24 -244.52,1149.38 -639.84,1544.7 -395.32,395.32 -941.47,639.84 -1544.7,639.84 -603.23,0 -1149.37,-244.52 -1544.69,-639.84 -395.32,-395.32 -639.84,-941.47 -639.84,-1544.7 0,-603.23 244.52,-1149.37 639.84,-1544.69 395.32,-395.32 941.46,-639.84 1544.69,-639.84zm1438.64 745.9c-368.16,-368.16 -876.82,-595.9 -1438.64,-595.9 -561.82,0 -1070.47,227.74 -1438.63,595.9 -368.16,368.16 -595.9,876.81 -595.9,1438.63 0,561.82 227.74,1070.48 595.9,1438.64 368.16,368.16 876.81,595.9 1438.63,595.9 561.82,0 1070.48,-227.74 1438.64,-595.9 368.16,-368.16 595.9,-876.81 595.9,-1438.64 0,-561.82 -227.74,-1070.47 -595.9,-1438.63z"/>
  <circle class="fil8" cx="74108.78" cy="12680.6" r="2109.54"/>
  <path class="fil8" d="M74108.77 15996.75c603.23,0 1149.38,244.52 1544.7,639.84 395.32,395.32 639.84,941.46 639.84,1544.69 0,603.24 -244.52,1149.38 -639.84,1544.7 -395.32,395.32 -941.46,639.84 -1544.7,639.84 -603.23,0 -1149.37,-244.52 -1544.69,-639.84 -395.32,-395.32 -639.84,-941.47 -639.84,-1544.7 0,-603.23 244.52,-1149.37 639.84,-1544.69 395.32,-395.32 941.46,-639.84 1544.69,-639.84zm1438.64 745.9c-368.16,-368.16 -876.82,-595.9 -1438.64,-595.9 -561.82,0 -1070.47,227.74 -1438.63,595.9 -368.16,368.16 -595.9,876.81 -595.9,1438.63 0,561.82 227.74,1070.48 595.9,1438.64 368.16,368.16 876.81,595.9 1438.63,595.9 561.83,0 1070.48,-227.74 1438.64,-595.9 368.16,-368.16 595.9,-876.81 595.9,-1438.64 0,-561.82 -227.74,-1070.47 -595.9,-1438.63z"/>
  <circle class="fil8" cx="79677.78" cy="12680.6" r="2109.54"/>
  <path class="fil8" d="M79677.77 15996.75c603.23,0 1149.38,244.52 1544.7,639.84 395.32,395.32 639.84,941.46 639.84,1544.69 0,603.24 -244.52,1149.38 -639.84,1544.7 -395.32,395.32 -941.46,639.84 -1544.7,639.84 -603.23,0 -1149.37,-244.52 -1544.69,-639.84 -395.32,-395.32 -639.84,-941.47 -639.84,-1544.7 0,-603.23 244.52,-1149.37 639.84,-1544.69 395.32,-395.32 941.46,-639.84 1544.69,-639.84zm1438.64 745.9c-368.16,-368.16 -876.82,-595.9 -1438.64,-595.9 -561.82,0 -1070.47,227.74 -1438.63,595.9 -368.16,368.16 -595.9,876.81 -595.9,1438.63 0,561.82 227.74,1070.48 595.9,1438.64 368.16,368.16 876.81,595.9 1438.63,595.9 561.83,0 1070.48,-227.74 1438.64,-595.9 368.16,-368.16 595.9,-876.81 595.9,-1438.64 0,-561.82 -227.74,-1070.47 -595.9,-1438.63z"/>
  <circle class="fil8" cx="85360.69" cy="12680.6" r="2109.54"/>
  <path class="fil8" d="M85360.68 15996.75c603.23,0 1149.38,244.52 1544.7,639.84 395.32,395.32 639.84,941.46 639.84,1544.69 0,603.24 -244.52,1149.38 -639.84,1544.7 -395.32,395.32 -941.46,639.84 -1544.7,639.84 -603.23,0 -1149.37,-244.52 -1544.69,-639.84 -395.32,-395.32 -639.84,-941.47 -639.84,-1544.7 0,-603.23 244.52,-1149.37 639.84,-1544.69 395.32,-395.32 941.46,-639.84 1544.69,-639.84zm1438.64 745.9c-368.16,-368.16 -876.82,-595.9 -1438.64,-595.9 -561.82,0 -1070.47,227.74 -1438.63,595.9 -368.16,368.16 -595.9,876.81 -595.9,1438.63 0,561.82 227.74,1070.48 595.9,1438.64 368.16,368.16 876.81,595.9 1438.63,595.9 561.83,0 1070.48,-227.74 1438.64,-595.9 368.16,-368.16 595.9,-876.81 595.9,-1438.64 0,-561.82 -227.74,-1070.47 -595.9,-1438.63z"/>
  <circle class="fil8" cx="100819.62" cy="12680.6" r="2109.54"/>
  <path class="fil8" d="M100819.61 15996.75c603.23,0 1149.38,244.52 1544.7,639.84 395.32,395.32 639.84,941.46 639.84,1544.69 0,603.24 -244.52,1149.38 -639.84,1544.7 -395.32,395.32 -941.46,639.84 -1544.7,639.84 -603.23,0 -1149.37,-244.52 -1544.69,-639.84 -395.32,-395.32 -639.84,-941.47 -639.84,-1544.7 0,-603.22 244.52,-1149.37 639.84,-1544.69 395.32,-395.32 941.47,-639.84 1544.69,-639.84zm1438.64 745.9c-368.16,-368.16 -876.82,-595.9 -1438.64,-595.9 -561.81,0 -1070.46,227.73 -1438.63,595.9 -368.17,368.17 -595.9,876.82 -595.9,1438.63 0,561.82 227.74,1070.48 595.9,1438.64 368.16,368.16 876.81,595.9 1438.63,595.9 561.83,0 1070.48,-227.74 1438.64,-595.9 368.16,-368.16 595.9,-876.81 595.9,-1438.64 0,-561.82 -227.74,-1070.47 -595.9,-1438.63z"/>
  <path class="fil10" d="M31772.94 -5221.46c0,242.89 166.68,445.25 391.47,503.61l0 1714.71 -260.98 0c-71.88,0 -130.49,58.36 -130.49,130.49 0,72.13 58.62,130.49 130.49,130.49l3914.68 0c72.38,0 130.49,-58.36 130.49,-130.49 0,-72.13 -58.11,-130.49 -130.49,-130.49l-260.98 0 0 -1714.71c224.79,-58.36 391.47,-260.72 391.47,-503.61l0 -130.49 -4175.66 0 0 130.49zm2609.78 521.96l0 0c288.51,0 521.96,-233.71 521.96,-521.96 0,242.89 166.69,445.25 391.47,503.61l0 1714.71 -1957.34 0 0 -1696.36c288.51,0 521.96,-233.71 521.96,-521.96 0,288.25 233.96,521.96 521.95,521.96zm-1174.4 -18.35l0 0 0 1714.71 -782.94 0 0 -1714.71c224.8,-58.36 391.47,-260.72 391.47,-503.61 0,242.89 166.69,445.25 391.47,503.61zm2218.32 -1808.5l0 0 -3131.74 0 -521.96 1043.92 4175.66 0 -521.96 -1043.92zm-2551.16 290.03l0 0 -260.98 521.96c-11.73,22.94 -34.66,36.2 -58.63,36.2 -9.68,0 -19.62,-2.04 -29.05,-6.89 -32.12,-16.05 -45.37,-55.3 -29.06,-87.42l260.98 -521.95c16.31,-32.12 55.3,-45.11 87.42,-29.32 32.37,16.06 45.12,55.31 29.32,87.42zm521.95 0l0 0 -260.98 521.96c-11.72,22.94 -34.65,36.2 -58.62,36.2 -9.69,0 -19.62,-2.04 -29.05,-6.89 -32.12,-16.05 -45.37,-55.3 -29.06,-87.42l260.98 -521.95c16.3,-32.12 55.56,-45.11 87.42,-29.32 32.37,16.06 45.11,55.31 29.31,87.42zm528.58 492.9l0 0c0,36.2 -29.06,65.25 -65.24,65.25 -35.93,0 -65.25,-29.06 -65.25,-65.25l0 -521.95c0,-36.2 29.32,-65.25 65.25,-65.25 36.19,0 65.24,29.06 65.24,65.25l0 521.95zm749.3 57.09l0 0c-10.2,5.62 -20.91,8.16 -31.61,8.16 -22.94,0 -45.37,-12.24 -57.09,-33.9l-285.44 -521.95c-17.33,-31.61 -5.61,-71.36 26,-88.44 31.1,-17.33 71.36,-6.12 88.69,25.73l285.45 521.97c16.81,31.6 5.6,71.36 -26,88.43zm519.41 1.28l0 0c-9.17,4.84 -18.86,6.88 -29.06,6.88 -23.96,0 -46.89,-13.25 -58.1,-36.2l-260.98 -521.95c-16.32,-32.12 -3.06,-71.36 29.05,-87.42 31.61,-16.06 71.37,-3.06 87.68,29.31l260.97 521.96c15.8,32.11 3.06,71.37 -29.56,87.42zm-2312.62 1918.86l0 0 0 -300.74c-38.24,-22.94 -65.25,-62.7 -65.25,-110.61 0,-72.13 58.63,-130.49 130.49,-130.49 72.38,0 130.49,58.36 130.49,130.49 0,47.91 -26.76,87.67 -65.24,110.61l0 300.74c38.48,22.94 65.24,62.7 65.24,110.61 0,72.13 -58.11,130.49 -130.49,130.49 -71.87,0 -130.49,-58.36 -130.49,-130.49 0,-47.92 27.02,-87.68 65.25,-110.61zm-587.2 -3021.14l0 0c0,-72.13 58.62,-130.49 130.48,-130.49l2870.77 0c72.38,0 130.49,58.36 130.49,130.49 0,72.13 -58.11,130.49 -130.49,130.49l-2870.77 0c-71.86,0 -130.48,-58.36 -130.48,-130.49zm1765.17 2786.41l0 0 -92.26 -92.27 369.04 -369.04 92.26 92.26 -369.04 369.05zm0 369.04l0 0 -92.26 -92.27 738.08 -738.08 92.26 92.26 -738.08 738.09zm645.82 -461.3l0 0 92.26 92.26 -369.04 369.04 -92.26 -92.26 369.04 -369.04z"/>
  <path class="fil11" d="M48407.19 -5026.98c0,122.22 83.87,224.05 196.99,253.42l0 862.85 -131.33 0c-36.17,0 -65.66,29.36 -65.66,65.66 0,36.29 29.5,65.66 65.66,65.66l1969.88 0c36.42,0 65.66,-29.37 65.66,-65.66 0,-36.3 -29.24,-65.66 -65.66,-65.66l-131.33 0 0 -862.85c113.12,-29.37 196.99,-131.2 196.99,-253.42l0 -65.66 -2101.2 0 0 65.66zm1313.25 262.65l0 0c145.18,0 262.65,-117.6 262.65,-262.65 0,122.22 83.87,224.05 196.99,253.42l0 862.85 -984.94 0 0 -853.62c145.18,0 262.65,-117.6 262.65,-262.65 0,145.05 117.73,262.65 262.65,262.65zm-590.96 -9.23l0 0 0 862.85 -393.98 0 0 -862.85c113.12,-29.37 196.99,-131.2 196.99,-253.42 0,122.22 83.87,224.05 196.99,253.42zm1116.26 -910.04l0 0 -1575.9 0 -262.65 525.3 2101.2 0 -262.65 -525.3zm-1283.75 145.94l0 0 -131.33 262.66c-5.9,11.54 -17.44,18.21 -29.5,18.21 -4.87,0 -9.87,-1.03 -14.62,-3.47 -16.16,-8.08 -22.83,-27.82 -14.62,-43.99l131.32 -262.65c8.21,-16.16 27.83,-22.69 44,-14.75 16.29,8.08 22.7,27.83 14.75,43.99zm262.65 0l0 0 -131.33 262.66c-5.9,11.54 -17.44,18.21 -29.49,18.21 -4.88,0 -9.88,-1.03 -14.63,-3.47 -16.16,-8.08 -22.83,-27.82 -14.62,-43.99l131.33 -262.65c8.2,-16.16 27.96,-22.69 43.99,-14.75 16.29,8.08 22.7,27.83 14.75,43.99zm265.98 248.03l0 0c0,18.22 -14.62,32.83 -32.83,32.83 -18.08,0 -32.83,-14.62 -32.83,-32.83l0 -262.65c0,-18.21 14.75,-32.83 32.83,-32.83 18.21,0 32.83,14.62 32.83,32.83l0 262.65zm377.05 28.73l0 0c-5.13,2.82 -10.52,4.1 -15.91,4.1 -11.54,0 -22.83,-6.15 -28.72,-17.05l-143.64 -262.65c-8.72,-15.9 -2.82,-35.91 13.08,-44.5 15.65,-8.73 35.91,-3.08 44.63,12.95l143.64 262.65c8.46,15.9 2.82,35.91 -13.08,44.5zm261.37 0.64l0 0c-4.62,2.44 -9.5,3.46 -14.63,3.46 -12.05,0 -23.59,-6.66 -29.24,-18.21l-131.32 -262.65c-8.21,-16.16 -1.54,-35.91 14.62,-43.99 15.9,-8.08 35.91,-1.54 44.12,14.75l131.32 262.65c7.95,16.16 1.54,35.91 -14.87,43.99zm-1163.72 965.58l0 0 0 -151.34c-19.24,-11.54 -32.83,-31.55 -32.83,-55.66 0,-36.29 29.5,-65.66 65.66,-65.66 36.42,0 65.67,29.37 65.67,65.66 0,24.11 -13.47,44.12 -32.84,55.66l0 151.34c19.37,11.54 32.84,31.55 32.84,55.66 0,36.29 -29.25,65.66 -65.67,65.66 -36.17,0 -65.66,-29.37 -65.66,-65.66 0,-24.12 13.6,-44.12 32.83,-55.66zm-295.48 -1520.25l0 0c0,-36.29 29.5,-65.66 65.66,-65.66l1444.58 0c36.42,0 65.66,29.37 65.66,65.66 0,36.3 -29.24,65.66 -65.66,65.66l-1444.58 0c-36.16,0 -65.66,-29.36 -65.66,-65.66zm888.24 1402.13l0 0 -46.43 -46.43 185.7 -185.7 46.43 46.42 -185.7 185.71zm0 185.7l0 0 -46.43 -46.43 371.41 -371.4 46.42 46.42 -371.4 371.41zm324.98 -232.13l0 0 46.42 46.43 -185.7 185.7 -46.43 -46.43 185.71 -185.7z"/>
  <g id="_2585325938720">
   <path class="fil9" d="M38812.17 -4107.75l0 -772.6 98.22 0 0 -153.74 348.97 0 4.27 153.74 272.44 0 0 -153.74 312.89 0 0 153.74 343.06 0 0 -153.74 208.09 0 0 926.34 -1587.94 0zm-1323.14 264.6l3175.67 0 0 -1037.2 142.99 0 0 -618.11 -726.64 -847.72 -131.14 0 514.68 857.78 0 189.71 -272.57 0 0 -189.71 -433.95 -857.78 -131.14 0 222.03 857.78 0 189.71 -312.89 0 0 -314.55 -201.79 -732.94 -111.02 0 28.82 1047.49 -341.69 0 0 -1047.49 -70.63 0 -252.36 847.72 0 199.77 -252.33 0 0 -219.89 252.33 -827.6 -90.82 0 -504.65 847.72 0 199.77 -267.38 0 0 -199.77 499.55 -847.72 -121.12 0 -756.9 847.72 0 618.11 142.95 0 0 1037.2zm1058.58 -264.6l-793.95 0 0 -926.34 238.27 0 0 153.74 343.14 0 0 -153.74 212.54 0 0 926.34z"/>
   <path class="fil9" d="M38303.17 -4306.3c0,-67.95 -55.06,-123.06 -123.16,-123.06 -68.11,0 -123.22,55.11 -123.22,123.06 0,68.18 55.11,123.21 123.22,123.21 68.1,0 123.16,-55.03 123.16,-123.21z"/>
   <path class="fil9" d="M40797.06 -3710.79l-3440.34 0c-219.18,0 -396.96,177.78 -396.96,396.99l4234.18 0c0,-219.21 -177.75,-396.99 -396.88,-396.99z"/>
  </g>
  <g id="_2585325937856">
   <path class="fil6" d="M44113.14 -4339.39l0 -524.81 66.71 0 0 -104.43 237.05 0 2.9 104.43 185.07 0 0 -104.43 212.54 0 0 104.43 233.03 0 0 -104.43 141.35 0 0 629.24 -1078.65 0zm-898.78 179.74l2157.16 0 0 -704.55 97.13 0 0 -419.86 -493.59 -575.84 -89.08 0 349.61 582.67 0 128.87 -185.15 0 0 -128.87 -294.77 -582.67 -89.09 0 150.83 582.67 0 128.87 -212.54 0 0 -213.67 -137.08 -497.87 -75.4 0 19.57 711.54 -232.11 0 0 -711.54 -47.97 0 -171.42 575.84 0 135.7 -171.4 0 0 -149.37 171.4 -562.17 -61.69 0 -342.8 575.84 0 135.7 -181.63 0 0 -135.7 339.33 -575.84 -82.26 0 -514.15 575.84 0 419.86 97.1 0 0 704.55zm719.07 -179.74l-539.31 0 0 -629.24 161.85 0 0 104.43 233.09 0 0 -104.43 144.37 0 0 629.24z"/>
   <path class="fil6" d="M43767.39 -4474.26c0,-46.15 -37.4,-83.59 -83.67,-83.59 -46.26,0 -83.69,37.44 -83.69,83.59 0,46.31 37.43,83.69 83.69,83.69 46.27,0 83.67,-37.38 83.67,-83.69z"/>
   <path class="fil6" d="M45461.43 -4069.75l-2336.95 0c-148.88,0 -269.64,120.77 -269.64,269.67l2876.18 0c0,-148.9 -120.74,-269.67 -269.59,-269.67z"/>
  </g>
  <g id="_2585325938288">
   <polygon class="fil6" points="54654.86,-4701.56 54654.86,-5002.75 54654.86,-5263.5 53671.52,-5263.5 53671.52,-4701.56 "/>
   <polygon class="fil6" points="54654.86,-4561.02 53812,-4561.02 53812,-3718.21 54654.86,-3718.21 "/>
   <polygon class="fil6" points="54795.34,-4553.5 54795.34,-3710.7 55638.19,-3710.7 55638.19,-4553.5 "/>
   <polygon class="fil6" points="54795.34,-4701.56 55778.66,-4701.56 55778.66,-5263.5 54795.34,-5263.5 "/>
   <path class="fil6" d="M54998.5 -5358.08c641.19,-6.62 492.87,-403.5 353.28,-530.12 -139.57,-126.4 -202.79,-17.46 -202.79,-17.46l-310.47 343.62c-16.71,-11.71 -36.95,-18.56 -58.83,-18.56l-87.46 0c-21.9,0 -42.14,6.85 -58.84,18.56l-310.48 -343.62c0,0 -63.23,-108.94 -202.79,17.46 -139.59,126.62 -287.9,523.5 353.28,530.12 0,0 -383.83,-152.69 -266.08,-318.42 106.25,-149.6 354.36,89.49 402,137.66 -12.86,17.24 -20.59,38.68 -20.59,61.88l0 6.63c0,57.23 46.36,103.64 103.5,103.64l87.46 0c57.13,0 103.49,-46.41 103.49,-103.64l0 -6.63c0,-23.2 -7.72,-44.64 -20.58,-61.88 47.67,-48.17 295.76,-287.26 401.96,-137.66 117.8,165.73 -266.06,318.42 -266.06,318.42z"/>
  </g>
  <circle class="fil8" cx="38740.29" cy="469.96" r="2109.54"/>
  <circle class="fil8" cx="38740.29" cy="5606.48" r="2109.54"/>
  <circle class="fil12" cx="43905.15" cy="469.96" r="2109.54"/>
  <path class="fil13" d="M31972.09 -642.53c-116.15,0 -218.37,101.14 -218.37,217.29l0 1850.89c0,131.91 102.22,231.8 234.71,231.8l3237.04 0c130.06,0 234.65,-99.89 234.65,-231.8l0 -1850.89c0,-116.15 -88.25,-217.29 -206.83,-217.29l-859.79 0 -58.15 -306.7c-13.82,-87.15 -88.25,-145.24 -174.15,-145.24l-1108.5 0c-74.34,0 -146.39,58.09 -160.32,145.24l-74.32 306.7 -845.97 0zm1633.7 304.44c118.56,0 218.37,30.25 320.61,73.25l0 0c102.31,29 204.55,102.22 278.89,174.21l0 0c72.06,73.24 144.14,175.48 174.3,277.73l13.91 0c30.25,87.15 58.09,203.3 58.09,320.7 0,101.14 -27.84,218.39 -58.09,320.69l-13.91 0c-30.16,102.25 -102.24,189.4 -174.3,262.61l0 0c-74.34,87.09 -176.58,145.18 -278.89,188.15l0 0c-102.24,44.18 -202.05,59.33 -320.61,59.33 -116.17,0 -218.48,-15.15 -320.72,-59.33l0 0c-102.31,-42.97 -188.29,-101.06 -276.52,-188.15l0 0c-72.08,-73.21 -132.43,-160.36 -174.32,-262.61l0 0c-44.08,-102.3 -58.15,-219.55 -58.15,-320.69 0,-117.4 14.07,-233.55 58.15,-320.7l0 0c41.89,-102.25 102.24,-204.49 174.32,-277.73l0 0c88.23,-71.99 174.21,-145.21 276.52,-174.21l0 0c102.24,-43 204.55,-73.25 320.72,-73.25l0 0zm-1326.91 -130.14c88.25,0 146.34,73.24 146.34,160.39 0,87.15 -58.09,160.31 -146.34,160.31 -102.24,0 -160.31,-73.16 -160.31,-160.31 0,-87.15 58.07,-160.39 160.31,-160.39l0 0zm1735.86 568.18c-58.09,-44.18 -116.16,-88.34 -190.58,-117.34 -71.97,-29.08 -130.06,-42.99 -218.37,-42.99 -72.08,0 -146.4,13.91 -218.48,42.99 -58.06,29 -130.14,73.16 -174.3,117.34 -58.06,58.06 -102.16,116.15 -130.06,189.37 -30.25,58.08 -44.24,131.33 -44.24,218.48 0,73.21 13.99,145.15 44.24,218.39 27.9,58.06 72,131.3 130.06,174.3 44.16,59.31 116.24,102.22 174.3,131.22 72.08,29.15 146.4,44.24 218.48,44.24 88.31,0 146.4,-15.09 218.37,-44.24 74.42,-29 132.49,-71.91 190.58,-131.22 44.15,-43 88.39,-116.24 116.21,-174.3 30.25,-73.24 44.09,-145.18 44.09,-218.39 0,-87.15 -13.84,-160.4 -44.09,-218.48 -27.82,-73.22 -72.06,-131.31 -116.21,-189.37l0 0z"/>
  <path class="fil6" d="M37825.17 -47.28c-65.02,0 -122.24,56.62 -122.24,121.64l0 1036.07c0,73.84 57.22,129.76 131.38,129.76l1812.02 0c72.8,0 131.35,-55.92 131.35,-129.76l0 -1036.07c0,-65.02 -49.4,-121.64 -115.78,-121.64l-481.29 0 -32.55 -171.68c-7.74,-48.79 -49.4,-81.3 -97.49,-81.3l-620.5 0c-41.62,0 -81.95,32.51 -89.75,81.3l-41.6 171.68 -473.55 0zm914.5 170.42c66.37,0 122.24,16.93 179.47,41l0 0c57.27,16.23 114.5,57.22 156.12,97.52l0 0c40.33,41 80.68,98.23 97.56,155.46l7.79 0c16.93,48.79 32.51,113.81 32.51,179.52 0,56.62 -15.58,122.25 -32.51,179.52l-7.79 0c-16.88,57.23 -57.23,106.02 -97.56,147l0 0c-41.62,48.75 -98.85,81.27 -156.12,105.32l0 0c-57.23,24.73 -113.1,33.22 -179.47,33.22 -65.03,0 -122.3,-8.49 -179.53,-33.22l0 0c-57.27,-24.05 -105.4,-56.57 -154.79,-105.32l0 0c-40.35,-40.98 -74.13,-89.77 -97.58,-147l0 0c-24.67,-57.27 -32.55,-122.9 -32.55,-179.52 0,-65.71 7.88,-130.73 32.55,-179.52l0 0c23.45,-57.23 57.23,-114.46 97.58,-155.46l0 0c49.39,-40.3 97.52,-81.29 154.79,-97.52l0 0c57.23,-24.07 114.5,-41 179.53,-41l0 0zm-742.77 -72.85c49.4,0 81.92,41 81.92,89.78 0,48.79 -32.52,89.74 -81.92,89.74 -57.23,0 -89.73,-40.95 -89.73,-89.74 0,-48.78 32.5,-89.78 89.73,-89.78l0 0zm971.69 318.05c-32.52,-24.73 -65.02,-49.45 -106.68,-65.68 -40.29,-16.28 -72.81,-24.07 -122.24,-24.07 -40.35,0 -81.95,7.79 -122.3,24.07 -32.5,16.23 -72.85,40.95 -97.57,65.68 -32.5,32.5 -57.18,65.02 -72.8,106 -16.93,32.52 -24.76,73.52 -24.76,122.3 0,40.99 7.83,81.25 24.76,122.25 15.62,32.51 40.3,73.5 72.8,97.57 24.72,33.2 65.07,57.22 97.57,73.46 40.35,16.31 81.95,24.76 122.3,24.76 49.43,0 81.95,-8.45 122.24,-24.76 41.66,-16.24 74.16,-40.26 106.68,-73.46 24.72,-24.07 49.48,-65.06 65.05,-97.57 16.93,-41 24.68,-81.26 24.68,-122.25 0,-48.78 -7.75,-89.78 -24.68,-122.3 -15.57,-40.98 -40.33,-73.5 -65.05,-106l0 0z"/>
  <path class="fil6" d="M42990.03 -47.28c-65.02,0 -122.24,56.62 -122.24,121.64l0 1036.07c0,73.84 57.22,129.76 131.38,129.76l1812.02 0c72.8,0 131.35,-55.92 131.35,-129.76l0 -1036.07c0,-65.02 -49.4,-121.64 -115.78,-121.64l-481.29 0 -32.55 -171.68c-7.74,-48.79 -49.4,-81.3 -97.49,-81.3l-620.5 0c-41.62,0 -81.95,32.51 -89.75,81.3l-41.6 171.68 -473.55 0zm914.5 170.42c66.37,0 122.24,16.93 179.47,41l0 0c57.27,16.23 114.5,57.22 156.12,97.52l0 0c40.33,41 80.68,98.23 97.56,155.46l7.79 0c16.93,48.79 32.51,113.81 32.51,179.52 0,56.62 -15.58,122.25 -32.51,179.52l-7.79 0c-16.88,57.23 -57.23,106.02 -97.56,147l0 0c-41.62,48.75 -98.85,81.27 -156.12,105.32l0 0c-57.23,24.73 -113.1,33.22 -179.47,33.22 -65.03,0 -122.3,-8.49 -179.53,-33.22l0 0c-57.27,-24.05 -105.4,-56.57 -154.79,-105.32l0 0c-40.35,-40.98 -74.13,-89.77 -97.58,-147l0 0c-24.67,-57.27 -32.55,-122.9 -32.55,-179.52 0,-65.71 7.88,-130.73 32.55,-179.52l0 0c23.45,-57.23 57.23,-114.46 97.58,-155.46l0 0c49.39,-40.3 97.52,-81.29 154.79,-97.52l0 0c57.23,-24.07 114.5,-41 179.53,-41l0 0zm-742.77 -72.85c49.4,0 81.92,41 81.92,89.78 0,48.79 -32.52,89.74 -81.92,89.74 -57.23,0 -89.73,-40.95 -89.73,-89.74 0,-48.78 32.5,-89.78 89.73,-89.78l0 0zm971.69 318.05c-32.52,-24.73 -65.02,-49.45 -106.68,-65.68 -40.29,-16.28 -72.81,-24.07 -122.24,-24.07 -40.35,0 -81.95,7.79 -122.3,24.07 -32.5,16.23 -72.85,40.95 -97.57,65.68 -32.5,32.5 -57.18,65.02 -72.8,106 -16.93,32.52 -24.76,73.52 -24.76,122.3 0,40.99 7.83,81.25 24.76,122.25 15.62,32.51 40.3,73.5 72.8,97.57 24.72,33.2 65.07,57.22 97.57,73.46 40.35,16.31 81.95,24.76 122.3,24.76 49.43,0 81.95,-8.45 122.24,-24.76 41.66,-16.24 74.16,-40.26 106.68,-73.46 24.72,-24.07 49.48,-65.06 65.05,-97.57 16.93,-41 24.68,-81.26 24.68,-122.25 0,-48.78 -7.75,-89.78 -24.68,-122.3 -15.57,-40.98 -40.33,-73.5 -65.05,-106l0 0z"/>
  <g id="_2585325868736">
   <circle class="fil12" cx="43809.35" cy="5834.47" r="2109.54"/>
   <path class="fil6" d="M43508.46 6150.34c-168.71,-106.18 -361.15,-438.67 -521.35,-426.51 -142.23,10.8 -189.35,167.86 -92.57,275.98l472.12 474.21c127.47,127.21 208.59,75.71 307.9,-24.68 157.84,-159.56 305.19,-306.59 464.32,-465.5 158.96,-158.74 294.42,-292.92 472.53,-473.42 74.08,-75.07 213.13,-163.97 145.66,-311.56 -23.34,-51.05 -85.25,-90.23 -170.71,-76.52 -140.93,22.62 -870.16,902.95 -1077.9,1028z"/>
  </g>
  <path class="fil6" d="M33265.38 6796.75c-280.43,0 -330.17,-358.03 -106.37,-457.65 177.12,-78.84 343.28,57.86 343.28,212.57 0,139.16 -99.46,245.08 -236.91,245.08zm-73.39 -3316.77l205.49 0c263.78,13 525.71,76.25 769.36,193.24 231.2,111.01 424.85,246.69 595.58,417.42 167.86,167.87 313.59,371.45 420.08,601.09 139.2,300.18 190.58,558.86 190.58,936.8 0,395.58 -152.08,831.45 -380.5,1147.18 -73.7,101.88 -142.89,189.09 -230.16,276.34 -164.24,164.19 -376.44,315.91 -601.09,420.08 -300.18,139.2 -558.86,190.58 -936.8,190.58 -415.33,0 -844.55,-161.56 -1147.18,-380.5 -106.6,-77.12 -257.82,-197.8 -338.43,-298.78 -21.24,-26.6 -38.46,-38.45 -61.97,-68.74 -112.04,-144.33 -224.9,-294.15 -295.26,-464.5 -145.97,-353.41 -191.34,-523.18 -191.34,-936.03 0,-534.37 250.83,-1063.68 610.66,-1423.52 373.6,-373.59 877.7,-585.64 1390.98,-610.66zm-490.3 1740.08c-72.61,0 -107.99,-6.38 -161.6,-58.98 -28.92,-28.37 -67.15,-76.34 -67.15,-128.91 0,-145.08 75.16,-314.24 161.26,-402.44 10,-10.26 14.81,-13.62 24.15,-24.86 35.04,-42.15 79.69,-80.77 127.49,-109.43 74.28,-44.54 93.92,-63.65 190.49,-95.43 25.23,-8.31 43.68,-15.84 67.24,-22.63 164.71,-47.42 415.67,-36.55 574.17,16.5l183.33 86.25c17.77,11.63 35,26.3 51.4,38.47 248.77,184.56 335.82,570.47 93.07,842.45l-255.36 242.97c-75.4,57.55 -194.65,180.3 -225.06,273.27 -46.13,141.07 -27.64,276.98 -211.19,284.86 -161.45,6.94 -220.06,-111.85 -202.37,-273.56 5.91,-54.04 4.98,-64.32 15.97,-106.63 32.78,-126.2 101.54,-217.76 191.56,-306.76 24.35,-24.08 40.85,-31.92 65.63,-56.91 150.44,-151.7 452.76,-327.46 271.02,-593.95 -32.12,-47.09 -74.76,-80.3 -125.7,-103.05 -111.33,-49.7 -268.5,-50.59 -365.66,2.83 -232.81,127.99 -172.1,495.94 -402.69,495.94z"/>
  <g id="_2585325863072">
   <path class="fil6" d="M38713.04 6196.77c183.6,-7.89 165.1,-143.83 211.25,-284.94 30.41,-93 149.7,-215.78 225.12,-273.33l255.42 -243.04c242.81,-272.04 155.73,-658.04 -93.1,-842.65 -16.4,-12.16 -33.63,-26.83 -51.4,-38.48l-183.38 -86.28c-158.53,-53.04 -409.56,-63.92 -574.31,-16.49 -23.57,6.8 -42.02,14.32 -67.25,22.63 -96.6,31.8 -116.26,50.9 -190.54,95.45 -47.81,28.68 -92.48,67.3 -127.52,109.46 -9.34,11.24 -14.16,14.6 -24.17,24.86 -86.1,88.23 -161.28,257.44 -161.28,402.55 0,52.57 38.23,100.55 67.15,128.93 53.63,52.62 89.01,59 161.64,59 230.65,0 169.93,-368.04 402.79,-496.07 97.19,-53.41 254.39,-52.55 365.75,-2.81 50.96,22.76 93.6,55.96 125.73,103.06 181.78,266.56 -120.61,442.36 -271.09,594.1 -24.78,24.99 -41.29,32.84 -65.64,56.92 -90.04,89.02 -158.82,180.61 -191.6,306.84 -10.99,42.33 -10.06,52.59 -15.98,106.65 -17.69,161.76 40.92,280.58 202.41,273.64z"/>
   <path class="fil6" d="M38961.46 6586.37c0,-154.75 -166.18,-291.48 -343.36,-212.62 -223.84,99.65 -174.1,457.77 106.39,457.77 137.49,0 236.97,-105.95 236.97,-245.15z"/>
  </g>
  <path class="fil6" d="M47681.73 5458.52c0,-83.27 13.72,-208.99 31.77,-279.4 11.49,-44.85 19.37,-85.14 34.38,-124.82 40.92,-108.07 90.74,-227.56 159.11,-318.47 115.12,-152.99 165.21,-204.04 317.43,-319.36 159.17,-120.57 370.74,-190.49 574.5,-221.48 27.82,-4.23 49.04,-1.06 76.39,-3.21 234.21,-18.36 440.07,28.55 644.42,130.65 304.76,152.27 561.88,449.88 649.83,775.71 18.47,68.43 28.21,121.79 39.88,198.91 57.57,380.56 -91.42,782.49 -358.66,1049.7 -68.43,68.44 -110.8,103.23 -188.26,159.09 -219.42,158.21 -566.67,246.16 -850.05,209.89 -335.68,-42.96 -555.08,-166.86 -792.47,-401.5 -70.74,-69.92 -150.52,-190.49 -195.95,-281.64 -89.35,-179.25 -142.32,-367.36 -142.32,-574.07zm-289.44 -50.65c0,346.63 56.11,554.85 207.61,827.15 22.28,40.05 47.38,79.3 73.46,114.68 159.64,216.36 368.63,409.46 616.32,519.78 250.15,111.42 411.15,144.82 716.28,144.82 271.09,0 628.89,-121.79 844.66,-284.18 33.75,-25.41 62.15,-47.7 96.04,-70.39 33.68,22.55 760.47,756.83 848.45,844.82 53.79,53.79 73.75,95.88 164.62,95.88 78.79,0 137.49,-62.23 137.49,-151.95 0,-72.67 -53.84,-108.12 -92.26,-146.55 -87.54,-87.53 -825.95,-818.46 -848.44,-852.06l130.33 -188.05c22.31,-33.26 34.87,-67.51 56.41,-102.79 83.18,-136.2 167.83,-454.27 167.83,-649.86 0,-350.81 -53.23,-556.92 -207.61,-834.4 -122.58,-220.31 -348.67,-444.15 -567.02,-569.06 -265.76,-152.01 -490.05,-210.21 -831.8,-210.21 -283.2,0 -521.61,89.95 -733.1,207.61 -75.61,42.08 -211.16,140.01 -271.07,199.29l-97.65 97.72c-20.17,20.08 -25.1,31.15 -43.33,50.74 -50.69,54.49 -119.71,154.06 -157.01,219.28 -117.76,205.86 -210.21,459.42 -210.21,737.73z"/>
  <path class="fil11" d="M55249.28 3739.91c-1073.36,0 -1941.94,868.6 -1941.94,1941.96 0,1073.37 868.58,1941.97 1941.94,1941.97 1073.37,0 1941.97,-868.6 1941.97,-1941.97 0,-1073.36 -868.6,-1941.96 -1941.97,-1941.96zm0 4060.43c-564.95,0 -1094.56,-218.9 -1497.05,-621.41 -402.51,-402.55 -621.5,-932.1 -621.5,-1497.06 0,-564.95 218.99,-1094.56 621.5,-1497.13 402.49,-402.43 932.1,-621.34 1497.05,-621.34 564.95,0 1094.57,218.91 1497.06,621.34 402.56,402.57 621.49,932.18 621.49,1497.13 0,564.96 -218.93,1094.51 -621.49,1497.06 -402.49,402.51 -932.11,621.41 -1497.06,621.41z"/>
  <path class="fil11" d="M55527.25 6406.71c-28.34,0 -49.47,-7.08 -70.67,-28.2l-543.75 -635.61c-28.26,-35.27 -28.26,-84.73 0,-112.99l543.75 -635.53c28.19,-35.34 84.73,-42.4 127.13,-7.08 35.26,28.26 42.38,84.72 7.06,127.12l-494.35 579.09 494.35 579.02c28.2,35.32 28.2,91.78 -7.06,127.1 -14.14,0 -35.34,7.08 -56.46,7.08z"/>
  <path class="fil11" d="M75872.54 7846.27c-83.18,0 -145.17,-20.78 -207.39,-82.77l-1595.94 -1865.55c-82.94,-103.49 -82.94,-248.66 0,-331.61l1595.94 -1865.32c82.71,-103.72 248.66,-124.45 373.11,-20.78 103.49,82.95 124.39,248.66 20.72,373.11l-1450.94 1699.66 1450.94 1699.43c82.77,103.67 82.77,269.38 -20.72,373.05 -41.5,0 -103.73,20.78 -165.72,20.78z"/>
  <path class="fil11" d="M61137.52 3483.54c1182.56,0 2141.92,949.95 2141.92,2120.78 0,1170.85 -959.36,2113.4 -2141.92,2113.4 -1182.47,0 -2134.32,-949.92 -2134.32,-2120.77 0,-1170.83 951.85,-2113.41 2134.32,-2113.41z"/>
  <path class="fil14" d="M60704.23 5092.12l-463.92 468.49 0 0c0,0 0,7.51 -7.37,7.51l0 0c0,0 0,0 0,7.43 0,0 0,0 0,7.37l0 0c0,0 0,0 0,7.49 0,0 0,0 0,7.37 0,0 0,0 0,7.52 0,0 0,0 0,7.37 0,0 0,0 0,7.51 0,0 0,0 0,7.43 0,0 0,0 0,7.37 0,0 0,0 0,7.51l0 7.35 0 7.52c0,0 0,0 0,7.37 0,0 0,0 0,7.43 0,0 0,0 0,7.51 0,0 0,0 0,7.37 0,0 0,0 0,7.51 0,0 0,0 0,7.37 0,0 0,0 0,7.5 0,0 0,0 0,7.36 0,0 0,0 0,7.44 0,0 0,0 0,7.51 0,0 0,0 0,7.37l0 0c0,0 0,7.51 7.37,7.51l0 0 463.92 468.49c36.82,37.18 95.72,37.18 132.54,0 36.83,-37.19 36.83,-96.68 0,-133.88l-301.91 -304.92 1340.19 0c51.56,0 95.73,-44.57 95.73,-96.63 0,-52.06 -44.17,-96.75 -95.73,-96.75l-1347.56 0 301.92 -304.94c14.71,-14.87 29.45,-44.55 29.45,-66.86 0,-22.32 -7.37,-44.63 -29.45,-66.94 -36.83,-89.26 -88.36,-89.26 -125.18,-52.06z"/>
  <g id="_2585325883520">
   <path class="fil11" d="M66433.12 3488.06c1177.79,0 2133.34,946.17 2133.34,2112.35 0,1166.21 -955.55,2105.02 -2133.34,2105.02 -1177.86,0 -2125.93,-946.15 -2125.93,-2112.35 0,-1166.19 948.07,-2105.02 2125.93,-2105.02z"/>
   <path class="fil14" d="M66992.35 6791.35c-22.15,0 -44.37,-7.34 -66.66,-29.33l-1111.04 -1100.19c-37.05,-36.66 -37.05,-95.35 0,-132.03l1111.04 -1100.17c37.03,-36.67 96.37,-36.67 133.33,0 37.05,36.68 37.05,95.35 0,132.03l-1044.43 1034.16 1044.43 1034.18c37.05,36.67 37.05,95.34 0,132.02 -22.14,14.68 -44.45,29.33 -66.67,29.33z"/>
  </g>
  <path class="fil11" d="M72240.77 8023.29c-39.54,0 -79.23,-13.11 -119.03,-52.39l-1984.04 -1964.66c-66.16,-65.45 -66.16,-170.26 0,-235.75l1984.04 -1964.62c66.12,-65.5 172.09,-65.5 238.1,0 66.16,65.49 66.16,170.26 0,235.75l-1865.09 1846.75 1865.09 1846.77c66.16,65.5 66.16,170.27 0,235.76 -39.54,26.21 -79.38,52.39 -119.07,52.39z"/>
  <g id="_2585325882704">
   <rect class="fil15" x="32062.24" y="9971.55" width="2578.37" height="277.47" rx="138.28" ry="138.74"/>
   <rect class="fil15" x="32062.24" y="10748.15" width="2578.37" height="277.47" rx="138.28" ry="138.74"/>
   <rect class="fil15" x="32062.24" y="11524.75" width="2578.37" height="277.47" rx="138.28" ry="138.74"/>
  </g>
  <g id="_2585325881984">
   <path class="fil16" d="M44770.68 9597.89c65.88,0 94.48,5.9 148.01,32.72l544.65 260.37c306.67,153.44 683.68,315.5 991.35,470.83 29.42,14.86 78.93,46.32 114.97,49.32l-435.37 221.8c-308.76,154.87 -669.99,309.46 -980.27,465.47 -78.25,39.35 -277.59,142.39 -350.48,142.39 -118.98,0 -162.74,-27.31 -287.54,-90.32 -71.19,-35.95 -142.54,-67.16 -216.28,-104.09 -347.84,-174.2 -731.96,-341.36 -1084.21,-517.61 -35.57,-17.79 -201.17,-99.03 -227.37,-101.21 25.57,-34.89 160.59,-84.18 210.86,-109.51l555.73 -265.72c241.48,-120.82 534.62,-245.63 775.01,-366.8 59.8,-30.14 160.29,-87.64 240.94,-87.64zm-6.2 -303.93l55.49 0c127.64,0 367.48,122.95 501.21,188.81 22,10.83 43.7,22 65.59,32.98 44.15,22.15 87.77,39.64 134.18,62.97l1202.14 572.19c97.41,51.99 146.86,140.42 158.72,229.65l0 86.25c-6.91,51.55 -26.11,99.24 -55.4,135.36 -79.69,98.32 -233.22,145.64 -379.93,219.72l-889.9 424.42c-26.57,12.31 -42.42,16.89 -68.6,29.98l-270.87 131.64c-302.02,144.96 -427.45,209.4 -755.73,51.81l-345.01 -164.29c-25.32,-12.15 -45.84,-18.64 -68.68,-29.89l-949.92 -454.77c-27.75,-13.31 -46.56,-18.85 -74.13,-32.65 -181.82,-90.97 -347.65,-123.91 -347.65,-375.23 0,-105.36 70.92,-202.82 155.95,-246.55l1341.46 -638.24c97.92,-41.79 296.16,-150.1 401.15,-190.28 76.48,-29.26 123.77,-33.41 189.93,-33.88z"/>
   <path class="fil17" d="M42675.99 11396.87c0,141.69 65.9,147.95 208.1,219.05 89.07,44.54 168.32,84.16 257.39,128.7l1300.6 646.24c161.49,81.54 340.32,105.7 519.33,59.25 61.7,-16 91.18,-30.8 143.71,-53.43 195.39,-84.17 588.62,-290.77 790.95,-391.93l654.42 -323.11c145.31,-72.66 331.32,-129.6 331.32,-260.13 0,-52.69 -34.94,-104.56 -70.12,-127.03 -109.89,-70.18 -243.18,36.86 -411.79,121.56l-133.22 63.93c-44.36,19.82 -88.49,42.82 -132.39,64.76l-788.59 394.3c-133.71,66.85 -414.3,230 -558.58,230 -153.61,0 -358.89,-126.05 -512.04,-202.62 -81.3,-40.65 -156.52,-78.26 -235.48,-117.74l-720.14 -355.97c-86.42,-43.21 -424.43,-227.26 -495.61,-227.26 -83.5,0 -147.86,73.15 -147.86,131.43z"/>
   <path class="fil17" d="M42675.99 12423.68c0,140.87 69.67,153.95 199.88,219.05l1552.45 772.27c99.54,49.8 202.4,78.21 305.63,84.78l92.78 0c100.47,-6.39 200.45,-33.62 297.18,-82.14l1688.87 -841.19c114.39,-77.03 85.18,-275.98 -95.26,-275.98 -54.95,0 -190.67,78.9 -240.96,104.05l-1415.63 703.71c-111.89,55.94 -154.97,87.62 -298.46,87.62 -131.11,0 -379.93,-144.79 -501.08,-205.37 -339.88,-169.94 -719.04,-366.54 -1059.61,-525.79l-120.54 -60.17c-141.67,-70.95 -250.22,-160.6 -352.94,-76.38 -19.97,16.38 -52.31,63.27 -52.31,95.54z"/>
  </g>
  <g id="_2585325879824">
   <path class="fil17" d="M52797.39 10889.72l-1129.11 0 0 -1120.29c0,-142.46 78.07,-220.53 220.53,-220.53l908.58 0c129.86,0 211.71,81.85 211.71,211.71l0 917.4c0,128.07 -83.64,211.71 -211.71,211.71zm-1411.39 -1173.22l0 1332c0,55.09 68.41,123.5 123.5,123.5l1332 0c232.32,0 449.88,-216.79 449.88,-449.88l0 -1005.62c0,-233.09 -217.56,-449.88 -449.88,-449.88l-1005.62 0c-233.09,0 -449.88,217.56 -449.88,449.88z"/>
   <path class="fil17" d="M49339.48 13006.81l0 -908.58c0,-142.46 78.07,-220.53 220.53,-220.53l1120.29 0 0 1129.11c0,128.07 -83.64,211.71 -211.71,211.71l-917.4 0c-129.86,0 -211.71,-81.85 -211.71,-211.71zm-282.28 -961.51l0 1005.62c0,232.47 218.18,449.88 449.88,449.88l1005.62 0c232.32,0 449.88,-216.79 449.88,-449.88l0 -1332c0,-55.09 -68.41,-123.5 -123.5,-123.5l-1332 0c-233.09,0 -449.88,217.56 -449.88,449.88z"/>
   <path class="fil17" d="M51668.28 13006.81l0 -1129.11 1129.11 0c129.86,0 211.71,81.85 211.71,211.71l0 917.4c0,128.07 -83.64,211.71 -211.71,211.71l-917.4 0c-129.86,0 -211.71,-81.85 -211.71,-211.71zm-282.28 -1287.89l0 1332c0,232.47 218.18,449.88 449.88,449.88l1005.62 0c232.32,0 449.88,-216.79 449.88,-449.88l0 -1005.62c0,-233.09 -217.56,-449.88 -449.88,-449.88l-1332 0c-55.09,0 -123.5,68.41 -123.5,123.5z"/>
   <path class="fil16" d="M49339.48 10678.01l0 -908.58c0,-142.46 78.07,-220.53 220.53,-220.53l908.58 0c129.86,0 211.71,81.85 211.71,211.71l0 1129.11 -1129.11 0c-129.86,0 -211.71,-81.85 -211.71,-211.71zm-282.28 -961.51l0 1005.62c0,232.47 218.18,449.88 449.88,449.88l1332 0c55.09,0 123.5,-68.41 123.5,-123.5l0 -1332c0,-233.09 -217.56,-449.88 -449.88,-449.88l-1005.62 0c-233.09,0 -449.88,217.56 -449.88,449.88z"/>
  </g>
  <g id="_2585324675760">
   <path class="fil16" d="M36837.52 9995.47c23.13,136.54 253.84,195.44 469.36,300.24 258.82,125.86 1486.71,705.67 1593.36,711.68 172.45,9.73 1506.15,-658.96 1860.03,-821.15 92.49,-42.4 203.92,-58.62 246.51,-157.57 -57.39,-95.93 -900.21,-448.64 -1014.8,-501.98 -1297.23,-603.72 -835.08,-597.88 -2106.74,-16.55l-1047.72 485.33z"/>
   <path class="fil17" d="M36840.23 12349.31c62.59,85.75 1947.99,959.59 2083.42,958.87 140.31,-0.79 2005.38,-875.83 2079.5,-958.87 -37.82,-102.78 -430.33,-249.22 -474.57,-256.8 -265.87,-45.51 -1342.48,639.49 -1605.16,640.25 -247.35,0.67 -1335.01,-668.53 -1584.4,-644.76 -56.84,5.4 -460.14,153.94 -498.79,261.31z"/>
   <path class="fil17" d="M41006.17 11188.99c-36.03,-75.04 -119.23,-92.58 -215.61,-138.92 -424.31,-204.06 -385.46,-108.24 -813.32,78.82 -202.88,88.71 -906.87,461.42 -1077.59,451.71 -110.76,-6.29 -911.21,-392.76 -1062.27,-465.73 -494.73,-238.99 -437,-223.63 -813.76,-50.73 -84.36,38.74 -244.81,73.72 -159.42,167.08 10.99,12.03 927.99,440.92 1016.51,479.66 1330.67,582.41 732.71,601.57 2115.66,-17.12 173.68,-77.69 941.58,-396.37 1009.8,-504.77z"/>
  </g>
  <path class="fil18" d="M57291.63 13120.6l0 -186.61 2353.03 0 0.02 232.37c8.32,-7.47 16.37,-14.51 24.19,-21.41 107.33,-94.36 170.16,-149.62 170.16,-329.97l0.07 -0.04c-9.65,-246.66 78.36,-330.42 153.03,-401.43 36.4,-34.66 69.23,-65.89 81.3,-113.11 17.48,-68.45 10.38,-118.48 -12.81,-150.86 -15.31,-21.38 -38.04,-35.47 -65.51,-42.47 -29.43,-7.47 -64.21,-6.94 -101.41,1.5 -82.51,18.71 -175.32,75.68 -249.06,170.31l0.01 340.43 -2353.02 0 0 -343.73 -55.03 -6.29 -1.07 -0.18c-20.43,-3.32 -40.68,-7.14 -61.76,-11.08 -148.03,-27.74 -339.43,-63.59 -406.01,95.23 -49.93,118.99 -34.42,178.62 -9.91,272.82 11.24,43.28 24.29,93.45 34.18,157.47 18.55,120.14 80.41,201.01 163.85,253.04 94.28,58.75 216.35,81.96 335.75,84.01zm138.89 -851.16c-7.53,-7.53 -17.85,-12.13 -29.24,-12.13 -11.45,0 -21.75,4.6 -29.24,12.13 -7.45,7.47 -12.13,17.79 -12.13,29.24 0.04,11.35 4.66,21.69 12.13,29.18 7.49,7.51 17.79,12.13 29.24,12.13 11.39,0 21.71,-4.62 29.2,-12.13 7.49,-7.49 12.12,-17.83 12.12,-29.18 0,-11.45 -4.63,-21.77 -12.08,-29.24zm-29.24 -39.48c18.94,0 36.11,7.72 48.52,20.11 12.46,12.41 20.14,29.63 20.14,48.61 0,18.9 -7.68,36.11 -20.14,48.55 -12.37,12.45 -29.58,20.11 -48.52,20.11 -18.96,0 -36.17,-7.66 -48.57,-20.11 -12.41,-12.44 -20.17,-29.59 -20.17,-48.55 0,-18.98 7.73,-36.2 20.17,-48.61 12.44,-12.39 29.61,-20.11 48.57,-20.11zm2141.77 885.65c-7.51,-7.43 -17.83,-12.07 -29.28,-12.07 -11.39,0 -21.69,4.64 -29.24,12.13 -7.43,7.41 -12.07,17.77 -12.07,29.18 0,11.44 4.64,21.75 12.07,29.28 7.55,7.43 17.85,12.13 29.24,12.13 11.45,-0.07 21.77,-4.7 29.28,-12.13 7.45,-7.53 12.06,-17.84 12.06,-29.28 0.03,-11.41 -4.61,-21.77 -12.06,-29.24zm-29.26 -39.46c18.94,0 36.14,7.74 48.57,20.15 12.41,12.43 20.11,29.63 20.11,48.55 0,18.98 -7.7,36.17 -20.11,48.61 -12.42,12.41 -29.63,20.1 -48.59,20.1 -18.9,0 -36.11,-7.67 -48.53,-20.1 -12.43,-12.44 -20.11,-29.63 -20.11,-48.61 0,-18.92 7.68,-36.12 20.11,-48.55 12.42,-12.41 29.63,-20.11 48.55,-20.15zm-2075.39 24.9c-7.44,-7.49 -17.83,-12.13 -29.19,-12.13 -11.43,0 -21.75,4.64 -29.24,12.13 -7.47,7.4 -12.11,17.77 -12.11,29.22 0.02,11.41 4.64,21.77 12.11,29.24 7.49,7.43 17.81,12.08 29.24,12.08 11.36,0 21.75,-4.65 29.19,-12.08 7.5,-7.47 12.13,-17.83 12.13,-29.24 0,-11.45 -4.63,-21.75 -12.13,-29.22zm-29.19 -39.44c18.98,0 36.15,7.68 48.55,20.07 12.43,12.45 20.09,29.61 20.09,48.59 0,18.92 -7.66,36.15 -20.09,48.57 -12.4,12.41 -29.62,20.11 -48.55,20.11 -18.97,0 -36.18,-7.7 -48.61,-20.11 -12.42,-12.42 -20.09,-29.65 -20.09,-48.57 0,-18.98 7.67,-36.11 20.09,-48.59 12.43,-12.42 29.63,-20.07 48.61,-20.07zm2133.84 -792.17c-7.51,-7.53 -17.83,-12.13 -29.28,-12.13 -11.39,0 -21.69,4.6 -29.24,12.13 -7.43,7.47 -12.07,17.79 -12.07,29.24 0,11.35 4.64,21.69 12.07,29.18 7.55,7.51 17.85,12.13 29.24,12.13 11.45,0 21.77,-4.62 29.28,-12.13 7.45,-7.49 12.06,-17.83 12.06,-29.18 0.03,-11.45 -4.61,-21.77 -12.06,-29.24zm-29.26 -39.48c18.94,0 36.14,7.72 48.57,20.11 12.41,12.41 20.11,29.63 20.11,48.61 0,18.9 -7.7,36.11 -20.11,48.55 -12.42,12.45 -29.63,20.11 -48.59,20.11 -18.9,0 -36.11,-7.66 -48.53,-20.11 -12.43,-12.44 -20.11,-29.59 -20.11,-48.55 0,-18.98 7.68,-36.2 20.11,-48.61 12.42,-12.39 29.63,-20.11 48.55,-20.11zm-2222.16 671.67l0 -113.14 2353.03 0 0 113.14 -2353.03 0zm0 -145.5l0 -104.47 2353.02 0 0.01 104.47 -2353.03 0zm2353.05 -551.24c73.89,-77.73 160.13,-125.75 238.37,-143.56 44.73,-10.09 87.14,-10.52 123.79,-1.21 38.62,9.75 70.96,30.08 93.18,61.13 31.29,43.67 41.8,107.46 20.41,191.07 -15.51,60.58 -53.18,96.45 -94.94,136.21 -67.5,64.21 -147.04,139.92 -138.03,365.51l0.1 0.9c0,202.28 -68.9,262.91 -186.64,366.37 -17.98,15.82 -37.12,32.69 -56.28,50.23l0.04 76.23 -2353.05 0 0 -138.77c-127.42,-2.17 -258.64,-27.25 -361.3,-91.29 -94.94,-59.24 -165.28,-150.86 -186.21,-286.71 -9.77,-63.22 -22.29,-111.3 -33.06,-152.81 -27,-103.99 -44.14,-169.69 11.94,-303.52 81.77,-195 294.88,-155.04 459.65,-124.22 21.2,3.98 41.53,7.79 59.31,10.75l49.67 5.58 0 -114.01 2353.05 0 0 92.12z"/>
  <path class="fil19" d="M57291.63 18621.28l0 -186.61 2353.03 0 0.02 232.37c8.32,-7.47 16.37,-14.51 24.19,-21.41 107.33,-94.36 170.16,-149.62 170.16,-329.97l0.07 -0.04c-9.65,-246.66 78.36,-330.42 153.03,-401.43 36.4,-34.66 69.23,-65.89 81.3,-113.11 17.48,-68.45 10.38,-118.48 -12.81,-150.86 -15.31,-21.38 -38.04,-35.47 -65.51,-42.47 -29.43,-7.47 -64.21,-6.94 -101.41,1.5 -82.51,18.71 -175.32,75.68 -249.06,170.31l0.01 340.43 -2353.02 0 0 -343.73 -55.03 -6.29 -1.07 -0.18c-20.43,-3.32 -40.68,-7.14 -61.76,-11.08 -148.03,-27.74 -339.43,-63.59 -406.01,95.23 -49.93,118.99 -34.42,178.62 -9.91,272.82 11.24,43.28 24.29,93.45 34.18,157.47 18.55,120.14 80.41,201.01 163.85,253.04 94.28,58.75 216.35,81.96 335.75,84.01zm138.89 -851.16c-7.53,-7.53 -17.85,-12.13 -29.24,-12.13 -11.45,0 -21.75,4.6 -29.24,12.13 -7.45,7.47 -12.13,17.79 -12.13,29.24 0.04,11.35 4.66,21.69 12.13,29.18 7.49,7.51 17.79,12.13 29.24,12.13 11.39,0 21.71,-4.62 29.2,-12.13 7.49,-7.49 12.12,-17.83 12.12,-29.18 0,-11.45 -4.63,-21.77 -12.08,-29.24zm-29.24 -39.48c18.94,0 36.11,7.72 48.52,20.11 12.46,12.41 20.14,29.63 20.14,48.61 0,18.9 -7.68,36.11 -20.14,48.55 -12.37,12.45 -29.58,20.11 -48.52,20.11 -18.96,0 -36.17,-7.66 -48.57,-20.11 -12.41,-12.44 -20.17,-29.59 -20.17,-48.55 0,-18.98 7.73,-36.2 20.17,-48.61 12.44,-12.39 29.61,-20.11 48.57,-20.11zm2141.77 885.65c-7.51,-7.43 -17.83,-12.07 -29.28,-12.07 -11.39,0 -21.69,4.64 -29.24,12.13 -7.43,7.41 -12.07,17.77 -12.07,29.18 0,11.44 4.64,21.75 12.07,29.28 7.55,7.43 17.85,12.13 29.24,12.13 11.45,-0.07 21.77,-4.7 29.28,-12.13 7.45,-7.53 12.06,-17.84 12.06,-29.28 0.03,-11.41 -4.61,-21.77 -12.06,-29.24zm-29.26 -39.46c18.94,0 36.14,7.74 48.57,20.15 12.41,12.43 20.11,29.63 20.11,48.55 0,18.98 -7.7,36.17 -20.11,48.61 -12.42,12.41 -29.63,20.1 -48.59,20.1 -18.9,0 -36.11,-7.67 -48.53,-20.1 -12.43,-12.44 -20.11,-29.63 -20.11,-48.61 0,-18.92 7.68,-36.12 20.11,-48.55 12.42,-12.41 29.63,-20.11 48.55,-20.15zm-2075.39 24.9c-7.44,-7.49 -17.83,-12.13 -29.19,-12.13 -11.43,0 -21.75,4.64 -29.24,12.13 -7.47,7.4 -12.11,17.77 -12.11,29.22 0.02,11.41 4.64,21.77 12.11,29.24 7.49,7.43 17.81,12.08 29.24,12.08 11.36,0 21.75,-4.65 29.19,-12.08 7.5,-7.47 12.13,-17.83 12.13,-29.24 0,-11.45 -4.63,-21.75 -12.13,-29.22zm-29.19 -39.44c18.98,0 36.15,7.68 48.55,20.07 12.43,12.45 20.09,29.61 20.09,48.59 0,18.92 -7.66,36.15 -20.09,48.57 -12.4,12.41 -29.62,20.11 -48.55,20.11 -18.97,0 -36.18,-7.7 -48.61,-20.11 -12.42,-12.42 -20.09,-29.65 -20.09,-48.57 0,-18.98 7.67,-36.11 20.09,-48.59 12.43,-12.42 29.63,-20.07 48.61,-20.07zm2133.84 -792.17c-7.51,-7.53 -17.83,-12.13 -29.28,-12.13 -11.39,0 -21.69,4.6 -29.24,12.13 -7.43,7.47 -12.07,17.79 -12.07,29.24 0,11.35 4.64,21.69 12.07,29.18 7.55,7.51 17.85,12.13 29.24,12.13 11.45,0 21.77,-4.62 29.28,-12.13 7.45,-7.49 12.06,-17.83 12.06,-29.18 0.03,-11.45 -4.61,-21.77 -12.06,-29.24zm-29.26 -39.48c18.94,0 36.14,7.72 48.57,20.11 12.41,12.41 20.11,29.63 20.11,48.61 0,18.9 -7.7,36.11 -20.11,48.55 -12.42,12.45 -29.63,20.11 -48.59,20.11 -18.9,0 -36.11,-7.66 -48.53,-20.11 -12.43,-12.44 -20.11,-29.59 -20.11,-48.55 0,-18.98 7.68,-36.2 20.11,-48.61 12.42,-12.39 29.63,-20.11 48.55,-20.11zm-2222.16 671.67l0 -113.14 2353.03 0 0 113.14 -2353.03 0zm0 -145.5l0 -104.47 2353.02 0 0.01 104.47 -2353.03 0zm2353.05 -551.24c73.89,-77.73 160.13,-125.75 238.37,-143.56 44.73,-10.09 87.14,-10.52 123.79,-1.21 38.62,9.75 70.96,30.08 93.18,61.13 31.29,43.67 41.8,107.46 20.41,191.07 -15.51,60.58 -53.18,96.45 -94.94,136.21 -67.5,64.21 -147.04,139.92 -138.03,365.51l0.1 0.9c0,202.28 -68.9,262.91 -186.64,366.37 -17.98,15.82 -37.12,32.69 -56.28,50.23l0.04 76.23 -2353.05 0 0 -138.77c-127.42,-2.17 -258.64,-27.25 -361.3,-91.29 -94.94,-59.24 -165.28,-150.86 -186.21,-286.71 -9.77,-63.22 -22.29,-111.3 -33.06,-152.81 -27,-103.99 -44.14,-169.69 11.94,-303.52 81.77,-195 294.88,-155.04 459.65,-124.22 21.2,3.98 41.53,7.79 59.31,10.75l49.67 5.58 0 -114.01 2353.05 0 0 92.12z"/>
  <g style="clip-path:url(#id0)">
   <image x="289197.08" y="-37040.7" width="76188.19" height="76188.19" xlink:href="buyer login 1_Images\buyer login 1_ImgID1.png"/>
  </g>
  <g id="_2585324665680">
   <path class="fil6" d="M63302.05 11832.95c-171.9,0 -141.27,-26.87 -141.27,254.3 0,14.99 23.99,32.96 42.38,32.96l1441 0c19.42,0 42.38,-15.83 42.38,-32.96l0 -221.33c0,-44.43 -107.8,-32.97 -141.27,-32.97l-31.28 -109.99c-11.36,-38.29 -16.63,-87.79 -58.19,-87.79l-367.32 0c-17.64,0 -12.14,13.92 -26.65,39.28 -61.8,108.03 -219.49,104.07 -276.32,-0.02 -5.06,-9.28 -5.61,-13.05 -10.18,-22.79 -5.04,-10.76 -2.55,-16.47 -16.49,-16.47l-367.32 0c-41.95,0 -46.29,49.24 -57.09,84.18l-32.38 113.6z"/>
   <path class="fil6" d="M64545.27 12567.58l21.35 -266.95c1.89,-13.92 5.38,-25.01 -11.93,-25.01l-1262.06 0c-25.16,0 -6.54,54.21 -4.7,113.01l37.34 438.29c3.73,55.08 -18.27,52.59 72.85,29.81 21.34,-5.33 35.26,-8.82 56.51,-14.13 82.81,-20.7 1061.81,-261.18 1090.64,-275.02z"/>
   <path class="fil6" d="M63387.09 13543.49c-0.27,66.06 8.77,89.76 39.96,128.19 22.28,27.46 67.53,54.36 115.17,54.36l762.88 0c45.77,0 85.42,-23.7 108.59,-46.82 32.06,-31.99 44.11,-67.5 46.99,-113.12 5.9,-93.33 23.37,-204.67 23.37,-296.85l-1096.96 274.24z"/>
   <path class="fil6" d="M63340 12992.52c-0.28,54.68 9.14,97.51 9.14,154.29 25.66,0 51.09,-9.25 74.4,-15.08l1098.18 -276.89c0,-57.28 9.42,-100.93 9.42,-160.11l-1191.14 297.79z"/>
   <path class="fil6" d="M63363 13268.15c0.27,57.87 9.69,100.7 9.69,156.5 20.34,-1.69 47.06,-10.6 68.75,-16.02l493.53 -123.37c43.52,-10.88 535.61,-129.92 563.21,-143.16 0,-57.28 9.42,-100.93 9.42,-160.11l-1144.6 286.16z"/>
  </g>
  <g id="_2585324663952">
   <path class="fil20" d="M63302.05 17333.63c-171.9,0 -141.27,-26.87 -141.27,254.3 0,14.99 23.99,32.96 42.38,32.96l1441 0c19.42,0 42.38,-15.83 42.38,-32.96l0 -221.33c0,-44.43 -107.8,-32.97 -141.27,-32.97l-31.28 -109.99c-11.36,-38.29 -16.63,-87.79 -58.19,-87.79l-367.32 0c-17.64,0 -12.14,13.92 -26.65,39.28 -61.8,108.03 -219.49,104.07 -276.32,-0.02 -5.06,-9.28 -5.61,-13.05 -10.18,-22.79 -5.04,-10.76 -2.55,-16.47 -16.49,-16.47l-367.32 0c-41.95,0 -46.29,49.24 -57.09,84.18l-32.38 113.6z"/>
   <path class="fil21" d="M64545.27 18068.26l21.35 -266.95c1.89,-13.92 5.38,-25.01 -11.93,-25.01l-1262.06 0c-25.16,0 -6.54,54.21 -4.7,113.01l37.34 438.29c3.73,55.08 -18.27,52.59 72.85,29.81 21.34,-5.33 35.26,-8.82 56.51,-14.13 82.81,-20.7 1061.81,-261.18 1090.64,-275.02z"/>
   <path class="fil22" d="M63387.09 19044.17c-0.27,66.06 8.77,89.76 39.96,128.19 22.28,27.46 67.53,54.36 115.17,54.36l762.88 0c45.77,0 85.42,-23.7 108.59,-46.82 32.06,-31.99 44.11,-67.5 46.99,-113.12 5.9,-93.33 23.37,-204.67 23.37,-296.85l-1096.96 274.24z"/>
   <path class="fil23" d="M63340 18493.2c-0.28,54.68 9.14,97.51 9.14,154.29 25.66,0 51.09,-9.25 74.4,-15.08l1098.18 -276.89c0,-57.28 9.42,-100.93 9.42,-160.11l-1191.14 297.79z"/>
   <path class="fil24" d="M63363 18768.83c0.27,57.87 9.69,100.7 9.69,156.5 20.34,-1.69 47.06,-10.6 68.75,-16.02l493.53 -123.37c43.52,-10.88 535.61,-129.92 563.21,-143.16 0,-57.28 9.42,-100.93 9.42,-160.11l-1144.6 286.16z"/>
  </g>
  <g id="_2585324660496">
   <path class="fil6" d="M68975.19 13302.59c-9.9,21.17 -107.74,112.08 -131.72,136.16 -39.64,39.8 -87.59,79.18 -158.6,104.08 -157.39,55.2 -314.17,-8.07 -395.93,-89.82 -141.25,-141.25 -159.94,-381.06 16.22,-556.48 23.84,-23.74 113.15,-119.93 134.06,-129.64l535.97 535.7zm-440.84 -1625.45l54.35 0c96.53,5.4 190.41,39.66 275.55,103.02l53.12 44.87c33.28,32.04 121.13,126.88 143.97,142.17 26.31,-17.61 110.14,-110.96 145.97,-144.1l51.13 -42.94c84.3,-62.74 179,-97.38 276.18,-103.02l56.72 0c63.64,3.67 127.69,19.68 189.96,48.32 24.88,11.44 55.85,30.67 75.78,45.74l63.75 53.84c48.42,48.74 94.3,120.46 116.11,185.72 23.24,69.56 27.87,112.41 27.87,187.71 0,124.98 -65.04,252.08 -147.89,338.16 -32.04,33.28 -126.88,121.13 -142.17,143.97 21.24,31.73 136.87,129.69 187.04,197.1 63.33,85.11 97.61,178.96 103.02,275.48l0 54.48c-3.51,63.32 -19.21,127.28 -47.09,190.22 -35.23,79.55 -96.64,144.04 -165.09,195.52 -75.78,57 -173.23,87.46 -271.45,90.67l-34.51 0c-59.22,-1.92 -117.83,-13.79 -171.23,-35.79 -52.41,-21.6 -104.59,-51.85 -144.52,-90.67 -8.31,-8.08 -9.65,-7.64 -17.4,-13.95 -63.56,-51.73 17.87,-151.58 78.2,-93.89 10.77,10.31 16.54,14.02 27.32,23.64 135.93,121.42 342.48,118.03 490.43,-1.56 126.08,-101.91 170.99,-295.95 101.21,-445.05 -39.87,-85.19 -92.06,-127.89 -154.55,-190.38l-768.28 -768.28c-51.31,-51.31 -165.78,-173.65 -219.68,-207.58 -166.85,-105.02 -374.14,-75.04 -499.84,74.07 -24.48,29.04 -36.1,47.74 -53.72,83.47 -48.51,98.4 -46.74,228.18 2.63,326.76 17.8,35.53 49.01,80 76.77,107.45l744.8 744.73c30.91,30.91 82.19,71.82 84.3,103.64 1.9,28.56 -16.41,46.18 -31.38,61 -16.05,15.88 -29.11,29.09 -45.08,45.06 -171.24,171.24 -254.06,277.33 -510.56,277.33 -99.87,0 -231.35,-52.29 -300.84,-118.58 -11.65,-11.11 -19.54,-15.48 -31.43,-27.36 -87.49,-87.5 -138.98,-206.56 -145.94,-329.05l0 -57.27c2.97,-51.35 13.94,-102.53 33.56,-151.5 25.45,-63.57 67.75,-127.34 114.33,-175.73 32.04,-33.29 126.88,-121.13 142.17,-143.98 -17.61,-26.3 -110.96,-110.13 -144.1,-145.96l-42.94 -51.13c-78.36,-105.3 -103.02,-194.35 -103.02,-328.16 0,-99.87 52.29,-231.35 118.58,-300.84 43.62,-45.73 36.09,-43.46 93.6,-86.7 18.56,-13.96 52.32,-33.98 74.01,-43.58 62.95,-27.88 126.94,-43.59 190.28,-47.09zm613.15 381.48c9.89,-21.17 107.74,-112.08 131.72,-136.17 173.49,-174.18 414.97,-154.6 554.51,-14.24 83.58,84.07 143.81,239.31 88.63,398.62 -24.46,70.61 -66.01,119.21 -104.83,157.85 -23.85,23.75 -113.14,119.92 -134.06,129.64l-535.97 -535.7z"/>
   <path class="fil6" d="M69202.08 12773.11c41.78,-12.75 78.45,15.63 87.42,47.75 11.59,41.56 -15,78.07 -47.33,87.58 -89.53,26.33 -131.59,-107.39 -40.09,-135.33zm-172.09 64.29c0,136.01 124.41,217.62 236.73,189.69 39.2,-9.75 67.26,-29.2 91.59,-53.44 21.26,-21.18 42.92,-55.5 50.27,-90.85 44.14,-212.38 -245.5,-336.55 -361.35,-122.23 -8.36,15.48 -17.24,53.86 -17.24,76.83z"/>
   <path class="fil6" d="M68885.43 12452.08c89.15,-23.02 122.9,115.52 33.41,137.08 -91.09,21.93 -126.15,-113.13 -33.41,-137.08zm19.12 259.88c100.77,0 188.15,-87.38 188.15,-188.15 0,-176.25 -206.96,-257.6 -326.35,-138.2 -119.37,119.36 -38.48,326.35 138.2,326.35z"/>
  </g>
  <g id="_2585324659872">
   <path class="fil25" d="M68975.19 18803.27c-9.9,21.17 -107.74,112.08 -131.72,136.16 -39.64,39.8 -87.59,79.18 -158.6,104.08 -157.39,55.2 -314.17,-8.07 -395.93,-89.82 -141.25,-141.25 -159.94,-381.06 16.22,-556.48 23.84,-23.74 113.15,-119.93 134.06,-129.64l535.97 535.7zm-440.84 -1625.45l54.35 0c96.53,5.4 190.41,39.66 275.55,103.02l53.12 44.87c33.28,32.04 121.13,126.88 143.97,142.17 26.31,-17.61 110.14,-110.96 145.97,-144.1l51.13 -42.94c84.3,-62.74 179,-97.38 276.18,-103.02l56.72 0c63.64,3.67 127.69,19.68 189.96,48.32 24.88,11.44 55.85,30.67 75.78,45.74l63.75 53.84c48.42,48.74 94.3,120.46 116.11,185.72 23.24,69.56 27.87,112.41 27.87,187.71 0,124.98 -65.04,252.08 -147.89,338.16 -32.04,33.28 -126.88,121.13 -142.17,143.97 21.24,31.73 136.87,129.69 187.04,197.1 63.33,85.11 97.61,178.96 103.02,275.48l0 54.48c-3.51,63.32 -19.21,127.28 -47.09,190.22 -35.23,79.55 -96.64,144.04 -165.09,195.52 -75.78,57 -173.23,87.46 -271.45,90.67l-34.51 0c-59.22,-1.92 -117.83,-13.79 -171.23,-35.79 -52.41,-21.6 -104.59,-51.85 -144.52,-90.67 -8.31,-8.08 -9.65,-7.64 -17.4,-13.95 -63.56,-51.73 17.87,-151.58 78.2,-93.89 10.77,10.31 16.54,14.02 27.32,23.64 135.93,121.42 342.48,118.03 490.43,-1.56 126.08,-101.91 170.99,-295.95 101.21,-445.05 -39.87,-85.19 -92.06,-127.89 -154.55,-190.38l-768.28 -768.28c-51.31,-51.31 -165.78,-173.65 -219.68,-207.58 -166.85,-105.02 -374.14,-75.04 -499.84,74.07 -24.48,29.04 -36.1,47.74 -53.72,83.47 -48.51,98.4 -46.74,228.18 2.63,326.76 17.8,35.53 49.01,80 76.77,107.45l744.8 744.73c30.91,30.91 82.19,71.82 84.3,103.64 1.9,28.56 -16.41,46.18 -31.38,61 -16.05,15.88 -29.11,29.09 -45.08,45.06 -171.24,171.24 -254.06,277.33 -510.56,277.33 -99.87,0 -231.35,-52.29 -300.84,-118.58 -11.65,-11.11 -19.54,-15.48 -31.43,-27.36 -87.49,-87.5 -138.98,-206.56 -145.94,-329.05l0 -57.27c2.97,-51.35 13.94,-102.53 33.56,-151.5 25.45,-63.57 67.75,-127.34 114.33,-175.73 32.04,-33.29 126.88,-121.13 142.17,-143.98 -17.61,-26.3 -110.96,-110.13 -144.1,-145.96l-42.94 -51.13c-78.36,-105.3 -103.02,-194.35 -103.02,-328.16 0,-99.87 52.29,-231.35 118.58,-300.84 43.62,-45.73 36.09,-43.46 93.6,-86.7 18.56,-13.96 52.32,-33.98 74.01,-43.58 62.95,-27.88 126.94,-43.59 190.28,-47.09zm613.15 381.48c9.89,-21.17 107.74,-112.08 131.72,-136.17 173.49,-174.18 414.97,-154.6 554.51,-14.24 83.58,84.07 143.81,239.31 88.63,398.62 -24.46,70.61 -66.01,119.21 -104.83,157.85 -23.85,23.75 -113.14,119.92 -134.06,129.64l-535.97 -535.7z"/>
   <path class="fil26" d="M69202.08 18273.79c41.78,-12.75 78.45,15.63 87.42,47.75 11.59,41.56 -15,78.07 -47.33,87.58 -89.53,26.33 -131.59,-107.39 -40.09,-135.33zm-172.09 64.29c0,136.01 124.41,217.62 236.73,189.69 39.2,-9.75 67.26,-29.2 91.59,-53.44 21.26,-21.18 42.92,-55.5 50.27,-90.85 44.14,-212.38 -245.5,-336.55 -361.35,-122.23 -8.36,15.48 -17.24,53.86 -17.24,76.83z"/>
   <path class="fil27" d="M68885.43 17952.76c89.15,-23.02 122.9,115.52 33.41,137.08 -91.09,21.93 -126.15,-113.13 -33.41,-137.08zm19.12 259.88c100.77,0 188.15,-87.38 188.15,-188.15 0,-176.25 -206.96,-257.6 -326.35,-138.2 -119.37,119.36 -38.48,326.35 138.2,326.35z"/>
  </g>
  <g id="_2585324690784">
   <path class="fil6" d="M73862.18 13759.84c-340.23,0 -616.05,-275.82 -616.05,-616.04 0,-285.76 194.55,-526.06 458.42,-595.71l0 -250.08c-399.79,74.05 -702.56,424.55 -702.56,845.79 0,475.06 385.12,860.18 860.19,860.18 381.7,0 705.33,-248.62 817.8,-592.75l-262.67 0c-99.57,206.29 -310.73,348.61 -555.13,348.61z"/>
   <polygon class="fil6" points="73867.29,12015.92 74180.12,12015.92 74180.12,12832.11 74742.28,12832.11 75215.55,13317.14 75005.21,13529.04 74604.62,13145.46 73877.7,13145.46 "/>
   <circle class="fil6" cx="74022.94" cy="11631.35" r="274.12"/>
  </g>
  <g id="_2585324691648">
   <path class="fil28" d="M73862.18 19260.52c-340.23,0 -616.05,-275.82 -616.05,-616.04 0,-285.76 194.55,-526.06 458.42,-595.71l0 -250.08c-399.79,74.05 -702.56,424.55 -702.56,845.79 0,475.06 385.12,860.18 860.19,860.18 381.7,0 705.33,-248.62 817.8,-592.75l-262.67 0c-99.57,206.29 -310.73,348.61 -555.13,348.61z"/>
   <polygon class="fil29" points="73867.29,17516.6 74180.12,17516.6 74180.12,18332.79 74742.28,18332.79 75215.55,18817.82 75005.21,19029.72 74604.62,18646.14 73877.7,18646.14 "/>
   <circle class="fil30" cx="74022.94" cy="17132.03" r="274.12"/>
  </g>
  <g id="_2585324689632">
   <path class="fil6" d="M79012.33 13747.91c50.32,-16.31 91.6,15.28 103.24,52.66 14.79,47.46 -14.99,90.6 -50.89,102.91 -103.54,35.5 -158.5,-121.16 -52.35,-155.57zm1269.67 0.14c51.41,-17.88 91.74,16.14 103.46,52.16 15.96,49.04 -16.08,90.88 -51.21,103.35 -101.59,36.07 -158.92,-118.43 -52.25,-155.51zm-603.42 -403.85c16.73,14.53 47.76,30.45 68.07,43.27 51.86,32.71 475.25,289.33 487.78,302.38l-1120.73 -0.64 564.88 -345.01zm545.84 -402c-0.74,0.81 -1.76,1.8 -2.32,2.31l-272.91 168.88c-28.75,17.94 -266.71,166.1 -274.76,165.24 -0.2,-0.02 -525.69,-318.11 -544.9,-336.46l1094.89 0.03zm-602.87 370.51c-18.86,15.14 -48.61,31.03 -70.72,44.75l-509.58 312.08c-53.41,32.94 -105.46,43.1 -129.78,103.91 -30,75.04 8.66,138.03 52.62,166.9 56.19,36.91 133.73,17.77 169.73,-18.53 16.1,-16.24 34.22,-46.24 38.08,-79.41 5.42,-46.55 -11.41,-67.2 -24.63,-99.34l1049.56 -0.07c-30.75,67.7 -42.08,118.67 11.75,175.54 99.86,105.49 271.29,2.91 227.89,-134.39 -19.45,-61.54 -67.71,-78 -125.42,-112.17l-581.26 -359.27 579.55 -357.12c30.09,-19.41 39.98,-13.44 80.66,-13.43l471.36 0.11c70.97,0.19 54.88,-43.28 54.92,-131.9 0.06,-96.22 -10.22,-83.72 -101.82,-83.72l-2262.49 0c-115.98,0 -116.1,-27.34 -113.67,165.79 0.43,34.39 11.36,49.35 47.25,49.87l467.52 -0.15c104.97,0 70.46,3.16 203.11,81.92 18.89,11.22 456.75,278.11 465.37,288.63z"/>
   <path class="fil6" d="M79862.79 11770.64c0,-36.49 13.58,-37.27 48.24,-37.28 34.11,-0.01 47.75,1.76 47.75,37.28 -0.02,145.83 15.27,163.49 -51.77,163.23 -59.68,-0.24 -44.23,-29.49 -44.22,-163.23zm74.7 -93.46c-2.12,-96.36 -19.26,-75.01 206.93,-77.04l1.24 881.85 -439.08 -0.21c6.11,-7.15 9.73,-9.04 15.98,-15.57 8.01,-8.38 10.1,-13.3 18.4,-20.62 107.62,-94.76 186.51,-280.97 194.54,-433.86 1.03,-19.53 -2.6,-20.76 10.88,-26.17 31.36,-12.58 64.15,-22.22 65.86,-82.33 1.83,-64.15 13.49,-164.16 -23.45,-198.72 -7.37,-6.89 -12.7,-11.62 -22.71,-16.28l-28.59 -11.05zm205.79 -130.26c-50.12,-0.78 -143.52,-5.18 -189.52,0.83 -88.27,11.54 -67.95,119.12 -69.41,125.54 -4.3,18.83 -38.48,1.09 -64.93,48.66 -14.84,26.68 -10.23,73.95 -10.23,107.1 0,81.23 -8.12,143.29 72.5,157.93 13.74,85.68 -49.75,243.28 -97.38,318.96 -35.94,57.09 -97.44,124.43 -151.73,163.83 -25.84,18.75 -56.02,12.03 -95.4,12.03 -140.18,0 -280.37,0 -420.56,0 -103.35,0 -105.02,9.91 -161.92,-46.91l-317.38 -317.35c-12.62,-12.55 -36.86,-50.38 -64.23,-29.92l-105.05 105.31c-18.59,18.64 -45.57,35.45 -15.87,66.91 67.68,71.67 140.27,140.29 210.43,210.14l184.93 185c12.46,12.73 12.97,19.64 35.44,19.64l1853.11 -0.4c-0.23,-26.59 2.83,-162.67 -2.69,-176.38 -9.45,-23.49 -50.98,-16.05 -74.7,-16.04l-458.47 0.11 -0.71 -881.61c39.01,-0.19 77.78,-0.01 116.5,-0.01 33.64,0 96.15,12.31 94.66,-28.19 -1.33,-36.44 -58.24,-25.37 -90.77,-25.37 -40.44,0 -80.89,0.06 -121.33,-0.04 0.05,-29.2 -0.11,-58.39 0.02,-87.59 0.12,-27.57 4.55,-60.13 -26.64,-59.94 -47.92,0.29 -19.06,111.1 -28.67,147.76z"/>
   <path class="fil6" d="M78695.23 12103.33c24.74,19.5 245.29,243.32 286.68,284.88 14.21,14.25 31.19,39.06 56.65,41.38 24.9,2.27 71.92,0.98 97.65,-0.45 19.33,-90.85 -18.84,-111.15 -59.23,-151.56l-165.51 -165.49c-17.14,-17.1 -34.43,-40.69 -59.21,-53.66 -60.15,-31.49 -137.26,-0.27 -157.03,44.9z"/>
  </g>
  <g id="_2585324687088">
   <path class="fil31" d="M79012.33 19248.59c50.32,-16.31 91.6,15.28 103.24,52.66 14.79,47.46 -14.99,90.6 -50.89,102.91 -103.54,35.5 -158.5,-121.16 -52.35,-155.57zm1269.67 0.14c51.41,-17.88 91.74,16.14 103.46,52.16 15.96,49.04 -16.08,90.88 -51.21,103.35 -101.59,36.07 -158.92,-118.43 -52.25,-155.51zm-603.42 -403.85c16.73,14.53 47.76,30.45 68.07,43.27 51.86,32.71 475.25,289.33 487.78,302.38l-1120.73 -0.64 564.88 -345.01zm545.84 -402c-0.74,0.81 -1.76,1.8 -2.32,2.31l-272.91 168.88c-28.75,17.94 -266.71,166.1 -274.76,165.24 -0.2,-0.02 -525.69,-318.11 -544.9,-336.46l1094.89 0.03zm-602.87 370.51c-18.86,15.14 -48.61,31.03 -70.72,44.75l-509.58 312.08c-53.41,32.94 -105.46,43.1 -129.78,103.91 -30,75.04 8.66,138.03 52.62,166.9 56.19,36.91 133.73,17.77 169.73,-18.53 16.1,-16.24 34.22,-46.24 38.08,-79.41 5.42,-46.55 -11.41,-67.2 -24.63,-99.34l1049.56 -0.07c-30.75,67.7 -42.08,118.67 11.75,175.54 99.86,105.49 271.29,2.91 227.89,-134.39 -19.45,-61.54 -67.71,-78 -125.42,-112.17l-581.26 -359.27 579.55 -357.12c30.09,-19.41 39.98,-13.44 80.66,-13.43l471.36 0.11c70.97,0.19 54.88,-43.28 54.92,-131.9 0.06,-96.22 -10.22,-83.72 -101.82,-83.72l-2262.49 0c-115.98,0 -116.1,-27.34 -113.67,165.79 0.43,34.39 11.36,49.35 47.25,49.87l467.52 -0.15c104.97,0 70.46,3.16 203.11,81.92 18.89,11.22 456.75,278.11 465.37,288.63z"/>
   <path class="fil32" d="M79862.79 17271.32c0,-36.49 13.58,-37.27 48.24,-37.28 34.11,-0.01 47.75,1.76 47.75,37.28 -0.02,145.83 15.27,163.49 -51.77,163.23 -59.68,-0.24 -44.23,-29.49 -44.22,-163.23zm74.7 -93.46c-2.12,-96.36 -19.26,-75.01 206.93,-77.04l1.24 881.85 -439.08 -0.21c6.11,-7.15 9.73,-9.04 15.98,-15.57 8.01,-8.38 10.1,-13.3 18.4,-20.62 107.62,-94.76 186.51,-280.97 194.54,-433.86 1.03,-19.53 -2.6,-20.76 10.88,-26.17 31.36,-12.58 64.15,-22.22 65.86,-82.33 1.83,-64.15 13.49,-164.16 -23.45,-198.72 -7.37,-6.89 -12.7,-11.62 -22.71,-16.28l-28.59 -11.05zm205.79 -130.26c-50.12,-0.78 -143.52,-5.18 -189.52,0.83 -88.27,11.54 -67.95,119.12 -69.41,125.54 -4.3,18.83 -38.48,1.09 -64.93,48.66 -14.84,26.68 -10.23,73.95 -10.23,107.1 0,81.23 -8.12,143.29 72.5,157.93 13.74,85.68 -49.75,243.28 -97.38,318.96 -35.94,57.09 -97.44,124.43 -151.73,163.83 -25.84,18.75 -56.02,12.03 -95.4,12.03 -140.18,0 -280.37,0 -420.56,0 -103.35,0 -105.02,9.91 -161.92,-46.91l-317.38 -317.35c-12.62,-12.55 -36.86,-50.38 -64.23,-29.92l-105.05 105.31c-18.59,18.64 -45.57,35.45 -15.87,66.91 67.68,71.67 140.27,140.29 210.43,210.14l184.93 185c12.46,12.73 12.97,19.64 35.44,19.64l1853.11 -0.4c-0.23,-26.59 2.83,-162.67 -2.69,-176.38 -9.45,-23.49 -50.98,-16.05 -74.7,-16.04l-458.47 0.11 -0.71 -881.61c39.01,-0.19 77.78,-0.01 116.5,-0.01 33.64,0 96.15,12.31 94.66,-28.19 -1.33,-36.44 -58.24,-25.37 -90.77,-25.37 -40.44,0 -80.89,0.06 -121.33,-0.04 0.05,-29.2 -0.11,-58.39 0.02,-87.59 0.12,-27.57 4.55,-60.13 -26.64,-59.94 -47.92,0.29 -19.06,111.1 -28.67,147.76z"/>
   <path class="fil33" d="M78695.23 17604.01c24.74,19.5 245.29,243.32 286.68,284.88 14.21,14.25 31.19,39.06 56.65,41.38 24.9,2.27 71.92,0.98 97.65,-0.45 19.33,-90.85 -18.84,-111.15 -59.23,-151.56l-165.51 -165.49c-17.14,-17.1 -34.43,-40.69 -59.21,-53.66 -60.15,-31.49 -137.26,-0.27 -157.03,44.9z"/>
  </g>
  <path class="fil6" d="M84521.03 13710.03l292 0c-107.3,-138.45 -387.08,-579.38 -117.58,-1136.71 0,0 147.16,-217.21 318.36,-348.94l-272.13 -473.71c-28.42,-53.7 27.31,-80.74 27.31,-80.74l-72.79 -135.67 259.21 -142.7 76.77 122.83c37.04,-29.8 76.77,2.71 76.77,2.71l746.24 1311.73c27,43.62 -52.97,70.62 -52.97,70.62l82.42 154.35 -223.12 128.82 -86.74 -150.23c-71.66,48.81 -88.3,14.78 -88.3,14.78l-287.31 -500.15c-100.91,56.57 -368.02,253.64 -243.12,706.43 0,0 65.69,293.2 465.72,456.58l756.38 0 0 259.62 -1660.6 0 3.48 -259.62zm946.35 -287.67l93.19 163.66 694.05 -406.16 -90.79 -167.24 -696.45 409.74z"/>
  <path class="fil34" d="M84521.03 19210.71l292 0c-107.3,-138.45 -387.08,-579.38 -117.58,-1136.71 0,0 147.16,-217.21 318.36,-348.94l-272.13 -473.71c-28.42,-53.7 27.31,-80.74 27.31,-80.74l-72.79 -135.67 259.21 -142.7 76.77 122.83c37.04,-29.8 76.77,2.71 76.77,2.71l746.24 1311.73c27,43.62 -52.97,70.62 -52.97,70.62l82.42 154.35 -223.12 128.82 -86.74 -150.23c-71.66,48.81 -88.3,14.78 -88.3,14.78l-287.31 -500.15c-100.91,56.57 -368.02,253.64 -243.12,706.43 0,0 65.69,293.2 465.72,456.58l756.38 0 0 259.62 -1660.6 0 3.48 -259.62zm946.35 -287.67l93.19 163.66 694.05 -406.16 -90.79 -167.24 -696.45 409.74z"/>
  <g id="_2585324688720">
   <circle class="fil8" cx="95482.99" cy="12680.6" r="2109.54"/>
   <g>
    <path class="fil6" d="M95862.75 13717.15c-101.14,0 -183.13,-82 -183.13,-183.13 0,-101.15 81.99,-183.14 183.13,-183.14 101.14,0 183.14,81.99 183.14,183.14 0,101.13 -82,183.13 -183.14,183.13zm648.09 -652.25c1.37,-101.14 -79.51,-184.23 -180.64,-185.59 -101.13,-1.37 -184.23,79.51 -185.6,180.65 -1.36,101.12 79.52,184.21 180.65,185.58 101.14,1.37 184.23,-79.51 185.59,-180.64zm-2133.38 -1497.61c0,0 224.81,-30 465.12,262.95l1224.38 1230.43 0 -1.76c1.94,-144.02 120.27,-259.2 264.29,-257.25 144.01,1.95 259.19,120.27 257.24,264.28 -1.95,144.02 -120.27,259.19 -264.28,257.25 -36.63,-0.5 -71.39,-8.53 -102.83,-22.59l-0.02 0c0,0 -1.24,-0.5 -3.69,-1.69 -18.16,-8.46 -35.15,-18.95 -50.73,-31.18 -56.91,-39.89 -159.28,-124.4 -310.81,-295.85l-800.99 -819.18 -48.58 55.32 0.03 0.02 -36.29 41.22 808.28 811.97c169.39,153.84 252.52,257.33 291.63,314.78 12.02,15.74 22.28,32.88 30.5,51.15 1.15,2.47 1.64,3.71 1.64,3.71l-0.01 0.02c13.63,31.63 21.2,66.49 21.2,103.13 0,144.02 -116.76,260.78 -260.79,260.78 -144.03,0 -260.79,-116.76 -260.79,-260.78 0,-144.04 116.76,-260.8 260.79,-260.8l1.76 0.03 -1214.21 -1208.77c-289.33,-243.94 -272.69,-496.38 -272.65,-496.99l-0.19 -0.2z"/>
    <path class="fil6" d="M94476.66 13562.54l142.06 99.86c0,0 33.76,24.61 68.22,-31.65l1177.07 -1313.1c0,0 27.43,-28.14 64.71,-4.22l154.05 74.56c0,0 47.83,33.76 84.4,-23.22 0,0 367.6,-484.75 292.75,-791.61l-1983.26 1989.38z"/>
   </g>
  </g>
  <path class="fil8" d="M95482.98 15996.75c603.23,0 1149.38,244.52 1544.7,639.84 395.32,395.32 639.84,941.46 639.84,1544.69 0,603.24 -244.52,1149.38 -639.84,1544.7 -395.32,395.32 -941.46,639.84 -1544.7,639.84 -603.23,0 -1149.37,-244.52 -1544.69,-639.84 -395.32,-395.32 -639.84,-941.47 -639.84,-1544.7 0,-603.23 244.52,-1149.37 639.84,-1544.69 395.32,-395.32 941.46,-639.84 1544.69,-639.84zm1438.64 745.9c-368.16,-368.16 -876.82,-595.9 -1438.64,-595.9 -561.82,0 -1070.47,227.74 -1438.63,595.9 -368.16,368.16 -595.9,876.81 -595.9,1438.63 0,561.82 227.74,1070.48 595.9,1438.64 368.16,368.16 876.81,595.9 1438.63,595.9 561.83,0 1070.48,-227.74 1438.64,-595.9 368.16,-368.16 595.9,-876.81 595.9,-1438.64 0,-561.82 -227.74,-1070.47 -595.9,-1438.63z"/>
  <g id="_2585324685888">
   <path class="fil35" d="M95862.75 19217.83c-101.14,0 -183.13,-82 -183.13,-183.13 0,-101.15 81.99,-183.14 183.13,-183.14 101.14,0 183.14,81.99 183.14,183.14 0,101.13 -82,183.13 -183.14,183.13zm648.09 -652.25c1.37,-101.14 -79.51,-184.23 -180.64,-185.59 -101.13,-1.37 -184.23,79.51 -185.6,180.65 -1.36,101.12 79.52,184.21 180.65,185.58 101.14,1.37 184.23,-79.51 185.59,-180.64zm-2133.38 -1497.61c0,0 224.81,-30 465.12,262.95l1224.38 1230.43 0 -1.76c1.94,-144.02 120.27,-259.2 264.29,-257.25 144.01,1.95 259.19,120.27 257.24,264.28 -1.95,144.02 -120.27,259.19 -264.28,257.25 -36.63,-0.5 -71.39,-8.53 -102.83,-22.59l-0.02 0c0,0 -1.24,-0.5 -3.69,-1.69 -18.16,-8.46 -35.15,-18.95 -50.73,-31.18 -56.91,-39.89 -159.28,-124.4 -310.81,-295.85l-800.99 -819.18 -48.58 55.32 0.03 0.02 -36.29 41.22 808.28 811.97c169.39,153.84 252.52,257.33 291.63,314.78 12.02,15.74 22.28,32.88 30.5,51.15 1.15,2.47 1.64,3.71 1.64,3.71l-0.01 0.02c13.63,31.63 21.2,66.49 21.2,103.13 0,144.02 -116.76,260.78 -260.79,260.78 -144.03,0 -260.79,-116.76 -260.79,-260.78 0,-144.04 116.76,-260.8 260.79,-260.8l1.76 0.03 -1214.21 -1208.77c-289.33,-243.94 -272.69,-496.38 -272.65,-496.99l-0.19 -0.2z"/>
   <path class="fil36" d="M94476.66 19063.22l142.06 99.86c0,0 33.76,24.61 68.22,-31.65l1177.07 -1313.1c0,0 27.43,-28.14 64.71,-4.22l154.05 74.56c0,0 47.83,33.76 84.4,-23.22 0,0 367.6,-484.75 292.75,-791.61l-1983.26 1989.38z"/>
  </g>
  <g id="_2585324685360">
   <circle class="fil8" cx="90514.21" cy="12744.33" r="2109.54"/>
   <g>
    <path class="fil11" d="M91475.26 12671.97c0,-168.7 -134.97,-303.57 -303.63,-303.57 -168.45,0 -303.43,134.87 -303.43,303.57 0,151.69 111.27,272.98 252.98,296.68l0 316.9c0,249.56 -202.35,451.95 -448.59,451.95 -249.59,0 -448.42,-202.39 -448.42,-451.95l-3.28 -360.82c117.8,-16.72 232.55,-84.35 333.62,-205.6 16.94,-16.97 23.71,-37.18 16.94,-57.39 134.79,-178.69 219.14,-418.12 219.14,-603.64 0,-283.21 -128.02,-313.52 -340.64,-364.07 -13.47,-26.95 -40.39,-43.92 -70.59,-43.92 -43.92,0 -81.1,33.69 -81.1,81 0,43.78 37.18,80.96 81.1,80.96 16.72,0 33.66,-10.19 47.13,-20.25l0 0c205.6,50.45 263.03,60.64 263.03,266.28 0,161.96 -77.61,381.03 -195.65,539.5 -20.21,0 -37.18,6.74 -53.87,23.71 -60.64,70.84 -155.22,155.19 -266.52,155.19 -114.51,0 -208.88,-84.35 -269.73,-155.19 -16.76,-16.97 -33.69,-23.71 -57.15,-23.71 -114.76,-158.47 -192.41,-377.54 -192.41,-539.5 0,-205.64 53.9,-219.08 263.03,-266.28 13.44,10.06 26.92,20.25 47.38,20.25 43.71,0 80.86,-37.18 80.86,-80.96 0,-47.31 -37.15,-81 -80.86,-81 -30.41,0 -57.4,16.97 -74.33,43.92 -209.09,50.55 -337.12,77.61 -337.12,364.07 0,185.52 80.83,428.34 219.08,603.64 -6.74,20.21 0,43.92 16.97,60.6 101.07,118.04 212.37,185.67 330.41,202.39l0 360.82c0,306.92 249.48,552.98 552.98,552.98 303.64,0 549.7,-246.06 549.7,-552.98l0 -316.9c144.95,-23.7 252.97,-144.99 252.97,-296.68l0 0z"/>
    <path class="fil37" d="M91171.63 12874.21l0 0c-111.3,0 -202.35,-90.98 -202.35,-202.24 0,-111.3 91.05,-202.43 202.35,-202.43 111.26,0 202.35,91.13 202.35,202.43 0,111.26 -91.09,202.24 -202.35,202.24l0 0z"/>
    <path class="fil11" d="M91171.63 12520.24l0 0c84.35,0 151.69,67.34 151.69,151.73 0,80.82 -67.34,151.69 -151.69,151.69 -80.86,0 -151.73,-70.87 -151.73,-151.69 0,-84.39 70.87,-151.73 151.73,-151.73l0 0z"/>
   </g>
  </g>
  <path class="fil8" d="M90514.2 16058.47c603.78,0 1150.43,244.75 1546.11,640.43 395.68,395.68 640.43,942.32 640.43,1546.1 0,603.79 -244.75,1150.43 -640.43,1546.11 -395.68,395.68 -942.32,640.43 -1546.11,640.43 -603.78,0 -1150.42,-244.75 -1546.1,-640.43 -395.68,-395.68 -640.43,-942.33 -640.43,-1546.11 0,-603.78 244.75,-1150.42 640.43,-1546.1 395.68,-395.68 942.32,-640.43 1546.1,-640.43zm1437.23 749.31c-367.8,-367.8 -875.96,-595.31 -1437.23,-595.31 -561.27,0 -1069.42,227.51 -1437.22,595.31 -367.8,367.8 -595.31,875.95 -595.31,1437.22 0,561.27 227.51,1069.43 595.31,1437.23 367.8,367.8 875.95,595.31 1437.22,595.31 561.28,0 1069.43,-227.51 1437.23,-595.31 367.8,-367.8 595.31,-875.95 595.31,-1437.23 0,-561.27 -227.51,-1069.42 -595.31,-1437.22z"/>
  <g id="_2585324678928">
   <path class="fil8" d="M91475.26 18172.65c0,-168.7 -134.97,-303.57 -303.63,-303.57 -168.45,0 -303.43,134.87 -303.43,303.57 0,151.69 111.27,272.98 252.98,296.68l0 316.9c0,249.56 -202.35,451.95 -448.59,451.95 -249.59,0 -448.42,-202.39 -448.42,-451.95l-3.28 -360.82c117.8,-16.72 232.55,-84.35 333.62,-205.6 16.94,-16.97 23.71,-37.18 16.94,-57.39 134.79,-178.69 219.14,-418.12 219.14,-603.64 0,-283.21 -128.02,-313.52 -340.64,-364.07 -13.47,-26.95 -40.39,-43.92 -70.59,-43.92 -43.92,0 -81.1,33.69 -81.1,81 0,43.78 37.18,80.96 81.1,80.96 16.72,0 33.66,-10.19 47.13,-20.25 205.6,50.45 263.03,60.64 263.03,266.28 0,161.96 -77.61,381.03 -195.65,539.5 -20.21,0 -37.18,6.74 -53.87,23.71 -60.64,70.84 -155.22,155.19 -266.52,155.19 -114.51,0 -208.88,-84.35 -269.73,-155.19 -16.76,-16.97 -33.69,-23.71 -57.15,-23.71 -114.76,-158.47 -192.41,-377.54 -192.41,-539.5 0,-205.64 53.9,-219.08 263.03,-266.28 13.44,10.06 26.92,20.25 47.38,20.25 43.71,0 80.86,-37.18 80.86,-80.96 0,-47.31 -37.15,-81 -80.86,-81 -30.41,0 -57.4,16.97 -74.33,43.92 -209.09,50.55 -337.12,77.61 -337.12,364.07 0,185.52 80.83,428.34 219.08,603.64 -6.74,20.21 0,43.92 16.97,60.6 101.07,118.04 212.37,185.67 330.41,202.39l0 360.82c0,306.92 249.48,552.98 552.98,552.98 303.64,0 549.7,-246.06 549.7,-552.98l0 -316.9c144.95,-23.7 252.97,-144.99 252.97,-296.68zm-303.63 202.24c-111.3,0 -202.35,-90.98 -202.35,-202.24 0,-111.3 91.05,-202.43 202.35,-202.43 111.26,0 202.35,91.13 202.35,202.43 0,111.26 -91.09,202.24 -202.35,202.24z"/>
   <path class="fil38" d="M91171.63 18020.92l0 0c84.35,0 151.69,67.34 151.69,151.73 0,80.82 -67.34,151.69 -151.69,151.69 -80.86,0 -151.73,-70.87 -151.73,-151.69 0,-84.39 70.87,-151.73 151.73,-151.73l0 0z"/>
  </g>
  <g id="_2585324678304">
   <path class="fil6" d="M101812.61 13275.73l-13.4 -23.63c-53.94,-94.41 -175.44,-310.2 -303.46,-495.66 -40.39,-64.06 -84.35,-121.39 -121.5,-172.01 -60.68,-84.31 -138.25,-188.81 -138.25,-222.57 3.49,-134.86 0,-458.54 0,-556.33l81.1 0 0 -141.6 -1021.92 0 0 141.6 108.05 0c0,97.79 -3.49,421.47 0,556.33 0,33.76 -77.61,138.26 -138.36,222.57 -40.43,50.62 -80.86,107.95 -124.78,172.01 -124.77,185.46 -246.13,401.25 -300.07,495.66l-13.44 23.63c-53.94,94.37 -53.94,225.89 0,316.94 37.04,67.45 101.04,104.6 178.65,104.6l1628.77 0c74.12,0 138.22,-37.15 178.61,-104.6 53.98,-91.05 53.98,-222.57 0,-316.94l0 0z"/>
   <g>
    <path class="fil39" d="M100929.26 12345.04c0,-43.82 23.56,-80.93 53.9,-80.93 30.31,0 53.94,37.11 53.94,80.93 0,43.85 -23.63,80.96 -53.94,80.96 -30.34,0 -53.9,-37.11 -53.9,-80.96l0 0z"/>
    <path class="fil40" d="M100774.04 12483.25c-53.87,0 -97.79,-67.38 -97.79,-148.34 0,-84.28 43.92,-151.69 97.79,-151.69 57.36,0 101.17,67.41 101.17,151.69 0,80.96 -43.81,148.34 -101.17,148.34l0 0z"/>
    <path class="fil41" d="M100855 12611.38c0,57.4 -30.31,101.21 -67.49,101.21 -37.04,0 -67.34,-43.81 -67.34,-101.21 0,-53.9 30.3,-101.1 67.34,-101.1 37.18,0 67.49,47.2 67.49,101.1l0 0z"/>
    <path class="fil42" d="M100986.51 12756.44c0,141.61 -144.99,141.61 -144.99,0 0,-60.71 30.31,-107.91 70.73,-107.91 40.57,0 74.26,47.2 74.26,107.91l0 0z"/>
    <path class="fil43" d="M100662.73 12645.14c0,43.85 -23.56,77.58 -53.9,77.58 -30.3,0 -53.87,-33.73 -53.87,-77.58 0,-47.2 23.57,-80.89 53.87,-80.89 30.34,0 53.9,33.69 53.9,80.89l0 0z"/>
    <path class="fil8" d="M101634 13289.28c-30.44,-54.05 -101.32,-182.17 -175.43,-290.09 -20.22,-30.34 -36.94,-53.94 -57.4,-80.86l-1163.25 0c-20.21,26.92 -37.08,50.52 -57.26,80.86 -74.26,107.92 -144.99,236.04 -175.43,290.09l-10.13 13.44c-30.3,57.29 -30.3,131.52 0,185.42 23.6,40.46 60.79,64.14 104.57,64.14l1436.51 0c47.16,0 84.35,-23.68 107.81,-64.14 30.41,-53.9 30.41,-128.13 0,-185.42l-9.99 -13.44z"/>
    <path class="fil41" d="M100986.51 12533.91c0,30.34 -16.86,53.91 -33.69,53.91 -20.32,0 -37.04,-23.57 -37.04,-53.91 0,-26.99 16.72,-50.66 37.04,-50.66 16.83,0 33.69,23.67 33.69,50.66l0 0z"/>
   </g>
  </g>
  <path class="fil8" d="M101812.61 18776.41l-13.4 -23.63c-53.94,-94.41 -175.44,-310.2 -303.46,-495.66 -40.39,-64.06 -84.35,-121.39 -121.5,-172.01 -60.68,-84.31 -138.25,-188.81 -138.25,-222.57 3.49,-134.86 0,-458.54 0,-556.33l81.1 0 0 -141.6 -1021.92 0 0 141.6 108.05 0c0,97.79 -3.49,421.47 0,556.33 0,33.76 -77.61,138.26 -138.36,222.57 -40.43,50.62 -80.86,107.95 -124.78,172.01 -124.77,185.46 -246.13,401.25 -300.07,495.66l-13.44 23.63c-53.94,94.37 -53.94,225.89 0,316.94 37.04,67.45 101.04,104.6 178.65,104.6l1628.77 0c74.12,0 138.22,-37.15 178.61,-104.6 53.98,-91.05 53.98,-222.57 0,-316.94zm-826.1 -741.82c0,30.34 -16.86,53.91 -33.69,53.91 -20.32,0 -37.04,-23.57 -37.04,-53.91 0,-26.99 16.72,-50.66 37.04,-50.66 16.83,0 33.69,23.67 33.69,50.66zm647.49 755.37c-30.44,-54.05 -101.32,-182.17 -175.43,-290.09 -20.22,-30.34 -36.94,-53.94 -57.4,-80.86l-1163.25 0c-20.21,26.92 -37.08,50.52 -57.26,80.86 -74.26,107.92 -144.99,236.04 -175.43,290.09l-10.13 13.44c-30.3,57.29 -30.3,131.52 0,185.42 23.6,40.46 60.79,64.14 104.57,64.14l1436.51 0c47.16,0 84.35,-23.68 107.81,-64.14 30.41,-53.9 30.41,-128.13 0,-185.42l-9.99 -13.44zm-971.27 -644.14c0,43.85 -23.56,77.58 -53.9,77.58 -30.3,0 -53.87,-33.73 -53.87,-77.58 0,-47.2 23.57,-80.89 53.87,-80.89 30.34,0 53.9,33.69 53.9,80.89zm323.78 111.3c0,141.61 -144.99,141.61 -144.99,0 0,-60.71 30.31,-107.91 70.73,-107.91 40.57,0 74.26,47.2 74.26,107.91zm-131.51 -145.06c0,57.4 -30.31,101.21 -67.49,101.21 -37.04,0 -67.34,-43.81 -67.34,-101.21 0,-53.9 30.3,-101.1 67.34,-101.1 37.18,0 67.49,47.2 67.49,101.1zm-80.96 -128.13c-53.87,0 -97.79,-67.38 -97.79,-148.34 0,-84.28 43.92,-151.69 97.79,-151.69 57.36,0 101.17,67.41 101.17,151.69 0,80.96 -43.81,148.34 -101.17,148.34zm155.22 -138.21c0,-43.82 23.56,-80.93 53.9,-80.93 30.31,0 53.94,37.11 53.94,80.93 0,43.85 -23.63,80.96 -53.94,80.96 -30.34,0 -53.9,-37.11 -53.9,-80.96z"/>
  <g id="_2585341135408">
   <circle class="fil8" cx="105650.81" cy="12680.6" r="2109.54"/>
   <path class="fil11" d="M106570.44 12946.76l-460.91 -266.15 460.91 -266.06c57.78,-33.4 77.51,-107.21 44.16,-164.91l-108.6 -188.19c-33.35,-57.74 -107.18,-77.54 -164.89,-44.19l-460.95 266.11 0 -532.26c0,-66.64 -54.04,-120.72 -120.72,-120.72l-217.27 0c-66.66,0 -120.71,54.08 -120.71,120.72l0 532.26 -460.96 -266.11c-57.69,-33.35 -131.54,-13.55 -164.87,44.19l-108.63 188.15c-33.36,57.74 -13.53,131.55 44.16,164.91l460.94 266.1 -460.94 266.15c-57.69,33.3 -77.5,107.12 -44.16,164.85l108.63 188.2c33.33,57.69 107.18,77.5 164.87,44.19l460.96 -266.15 0 532.26c0,66.64 54.05,120.71 120.71,120.71l217.27 0c66.68,0 120.72,-54.07 120.72,-120.71l0 -532.26 460.95 266.15c57.71,33.31 131.54,13.5 164.89,-44.19l108.6 -188.2c33.35,-57.73 13.6,-131.55 -44.16,-164.85z"/>
   <path class="fil44" d="M105763.77 12137.21c0,-56.04 -45.42,-101.47 -101.47,-101.47 -56.02,0 -101.47,45.43 -101.47,101.47 0,37.86 20.96,70.47 51.68,87.92l4.01 109.1c-5.62,-3.41 -10.4,-6.75 -16.12,-11.12 -9.34,-7.26 -18.05,-15.15 -25.59,-24.11 -31.02,-34.78 -47.6,-80.67 -50.2,-125.5 -3.54,-45.01 7.82,-88.1 24.44,-122.91 17.92,-35.29 40.15,-59.77 67.83,-76.85 21.82,-12.78 47.94,-18.66 66.3,-19.39 19.55,0.51 34.37,3.94 44.46,7.16 9.89,3.67 15.15,5.65 15.15,5.65l2.09 0.78c6.44,2.38 13.39,3.73 20.65,3.82 0.26,0 0.53,0 0.82,0 33.88,0 61.53,-27.24 61.94,-61.19 0.45,-34.22 -26.93,-62.33 -61.19,-62.8 0,0 -9.23,-0.09 -26.57,-0.31 -1.37,-0.05 -2.78,-0.05 -4.25,-0.05 -17.02,0 -41.18,2.57 -70.04,9.46 -31.95,8.73 -66.17,24.21 -101.43,54.9 -29.77,25.59 -59.25,66.42 -77.05,111.52 -16.86,39.93 -25.67,85.49 -25.8,133.72l0 2.39c0.02,5.96 0.17,11.99 0.45,18.05 3.62,55.26 21.33,116.22 63.95,164.22 10.39,11.99 22.32,22.78 35.08,32.52 12.02,9.42 29.09,19.43 40.34,24.94 5.95,2.85 11.75,5.56 17.43,8.23l9.04 245.48c-8.67,5.74 -17.27,11.66 -25.77,17.76 -8.69,6.49 -17.46,12.92 -26,19.95 -14.57,11.89 -28.47,25.35 -40.16,43.13 -9.05,13.97 -15.46,33.49 -12.46,52.04 2.58,18.56 11.18,33.13 20.04,45.07 18.28,23.66 39.1,40.69 59.39,56.82 11.13,9 22.55,17.23 33.79,24.99l0.75 0.53 0.01 0.01 22.02 598.3 2.35 2.35 2.51 -2.35 11.2 -304.13c2.37,-1.74 5.13,-3.81 8.25,-6.29 11.03,-8.73 26.92,-22.05 44.44,-41.99 17,-20.02 37.53,-47.08 45.58,-85.72 9.14,-38.52 -5.3,-87.04 -37.7,-121.44 -14.86,-16.54 -31.91,-30.31 -49.56,-43.5l8.95 -242.95c1.26,-0.74 2.52,-1.47 3.8,-2.25 25.07,-14.19 51.38,-29.86 76.2,-48.32 12.47,-9.47 24.87,-19.63 36.51,-32.57 11.16,-12.95 23.39,-29.27 26.58,-52.55 0.22,-1.43 0.37,-2.89 0.48,-4.32 0.13,-1.57 0.18,-3.08 0.19,-4.6l0 -1.05c-0.15,-19.94 -9.03,-38.26 -18.53,-50.71 -11.23,-15.17 -23.86,-26.14 -36.42,-36.2 -25.26,-19.75 -51.19,-35.19 -76.99,-49.88 -0.47,-0.29 -0.92,-0.51 -1.39,-0.78l5.78 -157.06c30.7,-17.45 51.68,-50.06 51.68,-87.92zm-128.33 732.3c-3.48,-2.85 -6.95,-5.79 -10.36,-8.83 -35.54,-30.08 -81.42,-73.63 -54.54,-104.96 14.2,-18.64 35.58,-35.27 59.62,-50.94l6.08 165.42c-0.26,-0.23 -0.53,-0.47 -0.8,-0.69zm0.8 0.69l0.02 0.01m0.75 20.62l-0.77 -20.63m59.64 -204.78l0.05 -1.56 -0.05 1.56zm1.4 -38.36l0.69 -18.64 -0.69 18.64zm0.69 -18.64l5.85 -158.72c16.2,9.01 31.86,18.48 46.06,28.71 21.72,15.16 37.91,34.46 35.49,45.02 -0.23,13.23 -19.8,35.19 -40.55,51.55 -14.83,11.89 -30.49,22.82 -46.85,33.44zm-21.26 577.72l8.83 -239.96c10.99,8.18 21.04,16.44 29.62,25.44 29.33,28.93 41.63,65.46 36.06,97.62 -4.96,32.33 -22.11,58.37 -37.15,77.67 -14.13,17.68 -27.48,30.45 -37.36,39.23zm162.93 -666.38c0,0.36 0,0.69 0,1.05m-377.68 -361.41c0,-0.83 0,-1.61 0,-2.39"/>
  </g>
  <path class="fil8" d="M105650.8 15996.75c603.23,0 1149.38,244.52 1544.7,639.84 395.32,395.32 639.84,941.46 639.84,1544.69 0,603.24 -244.52,1149.38 -639.84,1544.7 -395.32,395.32 -941.46,639.84 -1544.7,639.84 -603.23,0 -1149.37,-244.52 -1544.69,-639.84 -395.32,-395.32 -639.84,-941.47 -639.84,-1544.7 0,-603.23 244.52,-1149.37 639.84,-1544.69 395.32,-395.32 941.46,-639.84 1544.69,-639.84zm1438.64 745.9c-368.16,-368.16 -876.82,-595.9 -1438.64,-595.9 -561.82,0 -1070.47,227.74 -1438.63,595.9 -368.16,368.16 -595.9,876.81 -595.9,1438.63 0,561.82 227.74,1070.48 595.9,1438.64 368.16,368.16 876.81,595.9 1438.63,595.9 561.83,0 1070.48,-227.74 1438.64,-595.9 368.16,-368.16 595.9,-876.81 595.9,-1438.64 0,-561.82 -227.74,-1070.47 -595.9,-1438.63z"/>
  <path class="fil8" d="M106570.43 18447.44l-460.89 -266.15 460.89 -266.06c57.79,-33.4 77.53,-107.22 44.17,-164.9l-108.61 -188.2c-33.34,-57.74 -107.16,-77.54 -164.87,-44.19l-460.96 266.11 0 -532.26c0,-66.64 -54.03,-120.72 -120.72,-120.72l-217.27 0c-66.66,0 -120.72,54.08 -120.72,120.72l0 532.26 -460.94 -266.11c-57.7,-33.35 -131.54,-13.55 -164.88,44.19l-108.63 188.15c-33.37,57.73 -13.53,131.55 44.17,164.91l460.93 266.1 -460.93 266.15c-57.7,33.3 -77.51,107.12 -44.17,164.85l108.63 188.2c33.34,57.7 107.18,77.49 164.88,44.19l460.94 -266.15 0 532.26c0,66.63 54.06,120.71 120.72,120.71l217.27 0c66.69,0 120.72,-54.08 120.72,-120.71l0 -532.26 460.96 266.15c57.71,33.3 131.53,13.51 164.87,-44.19l108.61 -188.2c33.36,-57.73 13.6,-131.55 -44.17,-164.85zm-934.99 -77.25c-3.48,-2.85 -6.95,-5.79 -10.36,-8.83 -35.54,-30.08 -81.42,-73.63 -54.54,-104.96 14.2,-18.64 35.58,-35.27 59.62,-50.94l6.08 165.42 -6.08 -165.42m6.08 165.42c-0.26,-0.23 -0.53,-0.47 -0.8,-0.69 0.27,0.22 0.54,0.46 0.8,0.69zm59.64 -204.78l0.05 -1.56 -0.05 1.56zm1.4 -38.36l0.69 -18.64 -0.69 18.64zm66.49 -489.85c0,-56.04 -45.42,-101.47 -101.47,-101.47 -56.02,0 -101.47,45.43 -101.47,101.47 0,37.86 20.96,70.47 51.68,87.92l4.01 109.1c-5.62,-3.41 -10.4,-6.75 -16.12,-11.12 -9.34,-7.26 -18.05,-15.15 -25.59,-24.11 -31.02,-34.78 -47.6,-80.67 -50.2,-125.5 -3.54,-45.01 7.82,-88.1 24.44,-122.91 17.92,-35.29 40.15,-59.77 67.83,-76.85 21.82,-12.78 47.94,-18.66 66.3,-19.39 19.55,0.51 34.37,3.94 44.46,7.16 9.89,3.67 15.15,5.65 15.15,5.65l2.09 0.78c6.44,2.38 13.39,3.73 20.65,3.82 0.26,0 0.53,0 0.82,0 33.88,0 61.53,-27.24 61.94,-61.19 0.45,-34.22 -26.93,-62.33 -61.19,-62.8 0,0 -9.23,-0.09 -26.57,-0.31 -1.37,-0.05 -2.78,-0.05 -4.25,-0.05 -17.02,0 -41.18,2.57 -70.04,9.46 -31.95,8.73 -66.17,24.21 -101.43,54.9 -29.77,25.59 -59.25,66.42 -77.05,111.52 -16.86,39.93 -25.67,85.49 -25.8,133.72 0,0.78 0,1.56 0,2.39 0.02,5.96 0.17,11.99 0.45,18.05 3.62,55.26 21.33,116.22 63.95,164.22 10.39,11.99 22.32,22.78 35.08,32.52 12.02,9.42 29.09,19.43 40.34,24.94 5.95,2.85 11.75,5.56 17.43,8.23l9.04 245.48c-8.67,5.74 -17.27,11.66 -25.77,17.76 -8.69,6.49 -17.46,12.92 -26,19.95 -14.57,11.89 -28.47,25.35 -40.16,43.13 -9.05,13.97 -15.46,33.49 -12.46,52.04 2.58,18.56 11.18,33.13 20.04,45.07 18.28,23.66 39.1,40.69 59.39,56.82 11.13,9 22.55,17.23 33.79,24.99l0.75 0.53 0.01 0.01 22.02 598.3 2.35 2.35 2.51 -2.35 11.2 -304.13c2.37,-1.74 5.13,-3.81 8.25,-6.29 11.03,-8.73 26.92,-22.05 44.44,-41.99 17,-20.02 37.53,-47.08 45.58,-85.72 9.14,-38.52 -5.3,-87.04 -37.7,-121.44 -14.86,-16.54 -31.91,-30.31 -49.56,-43.5l8.95 -242.95c1.26,-0.74 2.52,-1.47 3.8,-2.25 25.07,-14.19 51.38,-29.86 76.2,-48.32 12.47,-9.47 24.87,-19.63 36.51,-32.57 11.16,-12.95 23.39,-29.27 26.58,-52.55 0.22,-1.43 0.37,-2.89 0.48,-4.32 0.13,-1.57 0.18,-3.08 0.19,-4.6 0,-0.36 0,-0.69 0,-1.05 -0.15,-19.94 -9.03,-38.26 -18.53,-50.71 -11.23,-15.17 -23.86,-26.14 -36.42,-36.2 -25.26,-19.75 -51.19,-35.19 -76.99,-49.88 -0.47,-0.29 -0.92,-0.51 -1.39,-0.78l5.78 -157.06c30.7,-17.45 51.68,-50.06 51.68,-87.92zm-65.8 471.21l5.85 -158.72c16.2,9.01 31.86,18.48 46.06,28.71 21.72,15.16 37.91,34.46 35.49,45.02 -0.23,13.23 -19.8,35.19 -40.55,51.55 -14.83,11.89 -30.49,22.82 -46.85,33.44zm-21.26 577.72l8.83 -239.96c10.99,8.18 21.04,16.44 29.62,25.44 29.33,28.93 41.63,65.46 36.06,97.62 -4.96,32.33 -22.11,58.37 -37.15,77.67 -14.13,17.68 -27.48,30.45 -37.36,39.23z"/>
  <g id="_2585341126480">
   <path class="fil1" d="M2110.32 2333.67c-295.61,0 -535.23,-239.63 -535.23,-535.23 0,-295.61 239.62,-535.23 535.23,-535.23 295.6,0 535.23,239.62 535.23,535.23 0,295.6 -239.63,535.23 -535.23,535.23zm0 -1481.49c-522.61,0 -946.26,423.65 -946.26,946.26 0,522.6 423.65,946.25 946.26,946.25 522.6,0 946.26,-423.65 946.26,-946.25 0,-522.61 -423.66,-946.26 -946.26,-946.26z"/>
   <path class="fil2" d="M2116.66 3787.89c-920.02,0 -1665.85,-748.23 -1665.85,-1671.23 0,-923 745.83,-1671.23 1665.85,-1671.23 920.03,0 1665.86,748.23 1665.86,1671.23 0,923 -745.83,1671.23 -1665.86,1671.23zm0 -3788.32c-1165.47,0 -2110.27,947.85 -2110.27,2117.09 0,1169.24 944.8,2117.09 2110.27,2117.09 1165.48,0 2110.28,-947.85 2110.28,-2117.09 0,-1169.24 -944.8,-2117.09 -2110.28,-2117.09z"/>
   <path class="fil3" d="M935.99 3295.64c112.46,113.35 241.03,210.6 381.98,288 237.13,-130.22 509.29,-204.25 798.69,-204.25 289.4,0 561.56,74.03 798.7,204.25 140.95,-77.4 269.52,-174.65 381.98,-288 -336.96,-228.61 -743.28,-362.11 -1180.68,-362.11 -437.4,0 -843.72,133.5 -1180.67,362.11z"/>
  </g>
 </g>
</svg>
